<?xml version="1.0" encoding="utf-8"?>
<!-- Generator: Adobe Illustrator 27.8.1, SVG Export Plug-In . SVG Version: 6.00 Build 0)  -->
<svg version="1.1" id="Layer_1" xmlns="http://www.w3.org/2000/svg" xmlns:xlink="http://www.w3.org/1999/xlink" x="0px" y="0px"
	 viewBox="0 0 2048 600.3" style="enable-background:new 0 0 2048 600.3;" xml:space="preserve">
<style type="text/css">
	.st0{fill-rule:evenodd;clip-rule:evenodd;fill:#EB5000;}
	.st1{enable-background:new    ;}
	.st2{fill:#FFFFFF;}
	.st3{fill-rule:evenodd;clip-rule:evenodd;fill:#E41165;}
</style>
<g transform="translate(700 -491)">
	<path class="st0" d="M-187.9,797.4C-187.9,672.9-87,572,37.5,572s225.4,100.9,225.4,225.4S162,1022.8,37.5,1022.8
		S-187.9,921.9-187.9,797.4z"/>
	<g class="st1">
		<path class="st2" d="M-30.7,743.5c-3.8-1.4-6.5-3.3-8.3-5.9c-1.8-2.5-2.7-5.6-2.7-9.2c0-5.4,1.9-9.9,5.8-13.5
			c3.9-3.7,9-5.5,15.4-5.5S-8.9,711.3-5,715c3.9,3.7,5.9,8.3,5.9,13.7c0,3.4-0.9,6.4-2.7,8.9c-1.8,2.5-4.5,4.5-8.2,5.9
			c4.5,1.5,8,3.9,10.3,7.1c2.4,3.3,3.5,7.2,3.5,11.8c0,6.3-2.2,11.6-6.7,15.9c-4.5,4.3-10.3,6.4-17.6,6.4s-13.1-2.2-17.6-6.5
			s-6.7-9.7-6.7-16.1c0-4.8,1.2-8.8,3.6-12C-38.6,746.9-35.2,744.7-30.7,743.5z M-35.4,762.2c0,2.6,0.6,5.1,1.8,7.5
			c1.2,2.4,3,4.3,5.5,5.6c2.4,1.3,5,2,7.8,2c4.3,0,7.9-1.4,10.7-4.2s4.2-6.3,4.2-10.6c0-4.4-1.5-8-4.3-10.8
			c-2.9-2.8-6.5-4.3-10.9-4.3c-4.3,0-7.8,1.4-10.6,4.2C-34,754.5-35.4,758-35.4,762.2z M-32.5,728.2c0,3.5,1.1,6.3,3.4,8.5
			c2.2,2.2,5.2,3.3,8.7,3.3s6.3-1.1,8.6-3.3c2.2-2.2,3.3-4.9,3.3-8.1c0-3.3-1.1-6.1-3.4-8.4c-2.3-2.3-5.2-3.4-8.6-3.4
			c-3.5,0-6.3,1.1-8.6,3.3C-31.3,722.5-32.5,725.1-32.5,728.2z"/>
		<path class="st2" d="M26.6,743.5c-3.8-1.4-6.5-3.3-8.3-5.9c-1.8-2.5-2.7-5.6-2.7-9.2c0-5.4,1.9-9.9,5.8-13.5
			c3.9-3.7,9-5.5,15.4-5.5s11.6,1.9,15.5,5.6c3.9,3.7,5.9,8.3,5.9,13.7c0,3.4-0.9,6.4-2.7,8.9c-1.8,2.5-4.5,4.5-8.2,5.9
			c4.5,1.5,8,3.9,10.3,7.1c2.4,3.3,3.5,7.2,3.5,11.8c0,6.3-2.2,11.6-6.7,15.9c-4.5,4.3-10.3,6.4-17.6,6.4s-13.1-2.2-17.6-6.5
			s-6.7-9.7-6.7-16.1c0-4.8,1.2-8.8,3.6-12C18.7,746.9,22.1,744.7,26.6,743.5z M21.9,762.2c0,2.6,0.6,5.1,1.8,7.5s3,4.3,5.5,5.6
			c2.4,1.3,5,2,7.8,2c4.3,0,7.9-1.4,10.7-4.2c2.8-2.8,4.2-6.3,4.2-10.6c0-4.4-1.5-8-4.3-10.8c-2.9-2.8-6.5-4.3-10.9-4.3
			c-4.3,0-7.8,1.4-10.6,4.2C23.3,754.5,21.9,758,21.9,762.2z M24.8,728.2c0,3.5,1.1,6.3,3.4,8.5c2.2,2.2,5.2,3.3,8.7,3.3
			s6.3-1.1,8.6-3.3c2.2-2.2,3.3-4.9,3.3-8.1c0-3.3-1.1-6.1-3.4-8.4c-2.3-2.3-5.2-3.4-8.6-3.4c-3.5,0-6.3,1.1-8.6,3.3
			C25.9,722.5,24.8,725.1,24.8,728.2z"/>
	</g>
	<g class="st1">
		<path class="st2" d="M62.9,727.5c0-5.3,1.3-9.7,4-13.4c2.6-3.7,6.5-5.5,11.5-5.5c4.6,0,8.5,1.7,11.5,5s4.6,8.2,4.6,14.6
			c0,6.2-1.5,11-4.6,14.4s-6.8,5.1-11.3,5.1s-8.2-1.7-11.1-5S62.9,734.2,62.9,727.5z M78.6,714.8c-2.2,0-4.1,1-5.6,2.9
			s-2.2,5.5-2.2,10.7c0,4.7,0.8,8.1,2.3,10s3.4,2.9,5.6,2.9c2.3,0,4.2-1,5.7-2.9s2.2-5.5,2.2-10.7c0-4.8-0.8-8.1-2.3-10
			C82.7,715.7,80.9,714.8,78.6,714.8z M78.7,786.2l40.3-77.7h7.3l-40.2,77.7H78.7z M110.5,766.2c0-5.3,1.3-9.8,4-13.4
			c2.6-3.7,6.5-5.5,11.6-5.5c4.6,0,8.5,1.7,11.5,5s4.5,8.2,4.5,14.6c0,6.2-1.5,11-4.6,14.4s-6.9,5.1-11.4,5.1s-8.2-1.7-11.1-5
			S110.5,772.9,110.5,766.2z M126.3,753.5c-2.3,0-4.2,1-5.7,2.9s-2.2,5.5-2.2,10.7c0,4.7,0.8,8,2.3,10c1.5,1.9,3.4,2.9,5.6,2.9
			c2.3,0,4.2-1,5.7-2.9s2.2-5.5,2.2-10.7c0-4.8-0.8-8.1-2.3-10C130.4,754.4,128.6,753.5,126.3,753.5z"/>
	</g>
	<g class="st1">
		<path class="st2" d="M-78,864.2v-29.9h4v12.3h15.5v-12.3h4v29.9h-4v-14.1H-74v14.1H-78z"/>
		<path class="st2" d="M-34.3,861.5c-1.4,1.2-2.7,2-3.9,2.4c-1.3,0.5-2.6,0.7-4,0.7c-2.4,0-4.2-0.6-5.5-1.7
			c-1.3-1.2-1.9-2.6-1.9-4.5c0-1.1,0.2-2,0.7-2.9s1.1-1.6,1.9-2.1s1.7-0.9,2.6-1.2c0.7-0.2,1.8-0.4,3.3-0.6c3-0.4,5.1-0.8,6.5-1.3
			c0-0.5,0-0.8,0-1c0-1.5-0.3-2.5-1-3.2c-0.9-0.8-2.3-1.2-4.2-1.2c-1.7,0-3,0.3-3.8,0.9s-1.4,1.7-1.8,3.2l-3.6-0.5
			c0.3-1.5,0.9-2.8,1.6-3.7c0.7-0.9,1.8-1.7,3.2-2.2c1.4-0.5,3.1-0.8,4.9-0.8c1.8,0,3.3,0.2,4.5,0.7c1.2,0.4,2,1,2.5,1.6
			c0.5,0.7,0.9,1.5,1.1,2.5c0.1,0.6,0.2,1.8,0.2,3.4v4.9c0,3.4,0.1,5.6,0.2,6.5c0.1,0.9,0.5,1.8,0.9,2.6h-3.8
			C-34,863.4-34.2,862.6-34.3,861.5z M-34.6,853.3c-1.3,0.5-3.3,1-6,1.4c-1.5,0.2-2.6,0.5-3.2,0.7s-1.1,0.7-1.4,1.2
			s-0.5,1.1-0.5,1.7c0,1,0.4,1.8,1.1,2.4c0.7,0.7,1.8,1,3.3,1c1.4,0,2.7-0.3,3.8-0.9c1.1-0.6,1.9-1.5,2.4-2.5
			c0.4-0.8,0.6-2.1,0.6-3.7v-1.3L-34.6,853.3L-34.6,853.3z"/>
		<path class="st2" d="M-25.3,864.2v-21.6h3.3v3.3c0.8-1.5,1.6-2.5,2.3-3s1.5-0.7,2.4-0.7c1.2,0,2.5,0.4,3.8,1.2l-1.3,3.4
			c-0.9-0.5-1.8-0.8-2.7-0.8c-0.8,0-1.5,0.2-2.2,0.7c-0.6,0.5-1.1,1.2-1.4,2c-0.4,1.3-0.6,2.7-0.6,4.3v11.3h-3.6V864.2z"/>
		<path class="st2" d="M-11.3,864.2v-21.6H-8v3c0.7-1.1,1.6-1.9,2.7-2.6s2.4-1,3.9-1c1.6,0,2.9,0.3,3.9,1s1.7,1.6,2.2,2.8
			c1.7-2.5,3.9-3.8,6.7-3.8c2.1,0,3.8,0.6,5,1.8c1.2,1.2,1.7,3,1.7,5.5v14.9h-3.6v-13.6c0-1.5-0.1-2.5-0.4-3.2s-0.7-1.2-1.3-1.6
			s-1.4-0.6-2.2-0.6c-1.5,0-2.8,0.5-3.8,1.5s-1.5,2.6-1.5,4.9v12.6H1.5v-14.1c0-1.6-0.3-2.9-0.9-3.7c-0.6-0.8-1.6-1.2-2.9-1.2
			c-1,0-2,0.3-2.9,0.8s-1.5,1.3-1.9,2.4c-0.4,1-0.6,2.6-0.6,4.5v11.2L-11.3,864.2L-11.3,864.2z"/>
		<path class="st2" d="M22.1,853.4c0-4,1.1-7,3.3-8.9c1.9-1.6,4.1-2.4,6.8-2.4c3,0,5.4,1,7.3,2.9c1.9,2,2.8,4.6,2.8,8.1
			c0,2.8-0.4,5-1.3,6.6c-0.8,1.6-2.1,2.8-3.6,3.7c-1.6,0.9-3.3,1.3-5.2,1.3c-3,0-5.5-1-7.3-2.9C23,859.8,22.1,857,22.1,853.4z
			 M25.9,853.4c0,2.8,0.6,4.8,1.8,6.2c1.2,1.4,2.7,2.1,4.6,2.1c1.8,0,3.3-0.7,4.5-2.1c1.2-1.4,1.8-3.5,1.8-6.3
			c0-2.7-0.6-4.7-1.8-6.1c-1.2-1.4-2.7-2.1-4.5-2.1c-1.8,0-3.4,0.7-4.6,2.1C26.5,848.5,25.9,850.6,25.9,853.4z"/>
		<path class="st2" d="M46.7,864.2v-21.6H50v3.1c1.6-2.4,3.9-3.6,6.9-3.6c1.3,0,2.5,0.2,3.6,0.7s1.9,1.1,2.5,1.8
			c0.5,0.8,0.9,1.7,1.1,2.7c0.1,0.7,0.2,1.9,0.2,3.6v13.3h-3.7V851c0-1.5-0.1-2.6-0.4-3.4c-0.3-0.7-0.8-1.3-1.5-1.8
			c-0.7-0.4-1.6-0.7-2.6-0.7c-1.6,0-2.9,0.5-4,1.5s-1.7,2.9-1.7,5.6V864h-3.7C46.7,864,46.7,864.2,46.7,864.2z"/>
		<path class="st2" d="M69.9,838.5v-4.2h3.7v4.2H69.9z M69.9,864.2v-21.6h3.7v21.6H69.9z"/>
		<path class="st2" d="M77.2,864.2v-3L91,845.4c-1.6,0.1-2.9,0.1-4.1,0.1h-8.8v-3h17.7v2.4l-11.7,13.7l-2.3,2.5
			c1.6-0.1,3.2-0.2,4.6-0.2h10v3.2H77.2C77.2,864.1,77.2,864.2,77.2,864.2z"/>
		<path class="st2" d="M114.2,861.5c-1.4,1.2-2.7,2-3.9,2.4c-1.3,0.5-2.6,0.7-4,0.7c-2.4,0-4.2-0.6-5.5-1.7
			c-1.3-1.2-1.9-2.6-1.9-4.5c0-1.1,0.2-2,0.7-2.9s1.1-1.6,1.9-2.1c0.8-0.5,1.7-0.9,2.6-1.2c0.7-0.2,1.8-0.4,3.3-0.6
			c3-0.4,5.1-0.8,6.5-1.3c0-0.5,0-0.8,0-1c0-1.5-0.3-2.5-1-3.2c-0.9-0.8-2.3-1.2-4.2-1.2c-1.7,0-3,0.3-3.8,0.9s-1.4,1.7-1.8,3.2
			l-3.6-0.5c0.3-1.5,0.9-2.8,1.6-3.7c0.7-0.9,1.8-1.7,3.2-2.2s3.1-0.8,4.9-0.8c1.8,0,3.3,0.2,4.5,0.7c1.2,0.4,2,1,2.5,1.6
			c0.5,0.7,0.9,1.5,1.1,2.5c0.1,0.6,0.2,1.8,0.2,3.4v4.9c0,3.4,0.1,5.6,0.2,6.5s0.5,1.8,0.9,2.6h-3.8
			C114.5,863.4,114.3,862.6,114.2,861.5z M113.9,853.3c-1.3,0.5-3.3,1-6,1.4c-1.5,0.2-2.6,0.5-3.2,0.7s-1.1,0.7-1.4,1.2
			s-0.5,1.1-0.5,1.7c0,1,0.4,1.8,1.1,2.4c0.7,0.7,1.8,1,3.3,1c1.4,0,2.7-0.3,3.8-0.9s1.9-1.5,2.4-2.5c0.4-0.8,0.6-2.1,0.6-3.7v-1.3
			L113.9,853.3L113.9,853.3z"/>
		<path class="st2" d="M131.3,860.9l0.5,3.2c-1,0.2-2,0.3-2.8,0.3c-1.3,0-2.4-0.2-3.1-0.6s-1.3-1-1.5-1.7c-0.3-0.7-0.4-2.1-0.4-4.3
			v-12.5h-2.7v-2.9h2.7V837l3.6-2.2v7.6h3.7v2.9h-3.7V858c0,1,0.1,1.7,0.2,2c0.1,0.3,0.3,0.5,0.6,0.7s0.7,0.3,1.3,0.3
			C130.1,861.1,130.6,861,131.3,860.9z"/>
		<path class="st2" d="M134.9,838.5v-4.2h3.7v4.2H134.9z M134.9,864.2v-21.6h3.7v21.6H134.9z"/>
		<path class="st2" d="M142.8,853.4c0-4,1.1-7,3.3-8.9c1.9-1.6,4.1-2.4,6.8-2.4c3,0,5.4,1,7.3,2.9c1.9,2,2.8,4.6,2.8,8.1
			c0,2.8-0.4,5-1.3,6.6c-0.8,1.6-2.1,2.8-3.6,3.7c-1.6,0.9-3.3,1.3-5.2,1.3c-3,0-5.5-1-7.3-2.9C143.7,859.8,142.8,857,142.8,853.4z
			 M146.5,853.4c0,2.8,0.6,4.8,1.8,6.2c1.2,1.4,2.7,2.1,4.6,2.1c1.8,0,3.3-0.7,4.5-2.1s1.8-3.5,1.8-6.3c0-2.7-0.6-4.7-1.8-6.1
			s-2.7-2.1-4.5-2.1s-3.4,0.7-4.6,2.1C147.1,848.5,146.5,850.6,146.5,853.4z"/>
		<path class="st2" d="M167.3,864.2v-21.6h3.3v3.1c1.6-2.4,3.9-3.6,6.9-3.6c1.3,0,2.5,0.2,3.6,0.7s1.9,1.1,2.5,1.8
			c0.5,0.8,0.9,1.7,1.1,2.7c0.1,0.7,0.2,1.9,0.2,3.6v13.3h-3.7V851c0-1.5-0.1-2.6-0.4-3.4c-0.3-0.7-0.8-1.3-1.5-1.8
			c-0.7-0.4-1.6-0.7-2.6-0.7c-1.6,0-2.9,0.5-4,1.5s-1.7,2.9-1.7,5.6V864h-3.7V864.2z"/>
	</g>
	<g class="st1">
		<path class="st2" d="M-84.1,900.7c0-4,1.1-7,3.3-8.9c1.9-1.6,4.1-2.4,6.8-2.4c3,0,5.4,1,7.3,2.9c1.9,2,2.8,4.6,2.8,8.1
			c0,2.8-0.4,5-1.3,6.6c-0.8,1.6-2.1,2.8-3.6,3.7c-1.6,0.9-3.3,1.3-5.2,1.3c-3,0-5.5-1-7.3-2.9C-83.2,907.1-84.1,904.3-84.1,900.7z
			 M-80.3,900.7c0,2.8,0.6,4.8,1.8,6.2c1.2,1.4,2.7,2.1,4.6,2.1c1.8,0,3.3-0.7,4.5-2.1c1.2-1.4,1.8-3.5,1.8-6.3
			c0-2.7-0.6-4.7-1.8-6.1c-1.2-1.4-2.7-2.1-4.5-2.1c-1.8,0-3.4,0.7-4.6,2.1C-79.7,895.8-80.3,897.9-80.3,900.7z"/>
		<path class="st2" d="M-58.7,911.5v-18.8h-3.2v-2.9h3.2v-2.3c0-1.5,0.1-2.5,0.4-3.2c0.4-1,1-1.7,1.9-2.3c0.9-0.6,2.1-0.9,3.7-0.9
			c1,0,2.2,0.1,3.4,0.4l-0.6,3.2c-0.8-0.1-1.5-0.2-2.2-0.2c-1.1,0-1.9,0.2-2.4,0.7s-0.7,1.4-0.7,2.7v2h4.2v2.9h-4.2v18.8
			L-58.7,911.5L-58.7,911.5z"/>
		<path class="st2" d="M-28.3,908.2l0.5,3.2c-1,0.2-2,0.3-2.8,0.3c-1.3,0-2.4-0.2-3.1-0.6s-1.3-1-1.5-1.7c-0.3-0.7-0.4-2.1-0.4-4.3
			v-12.5h-2.7v-2.9h2.7v-5.4l3.6-2.2v7.6h3.7v2.9H-32v12.7c0,1,0.1,1.7,0.2,2s0.3,0.5,0.6,0.7s0.7,0.3,1.3,0.3
			C-29.5,908.4-29,908.3-28.3,908.2z"/>
		<path class="st2" d="M-9.9,904.5l3.8,0.5c-0.6,2.2-1.7,3.9-3.3,5.2c-1.6,1.2-3.7,1.8-6.2,1.8c-3.2,0-5.7-1-7.5-2.9
			c-1.9-2-2.8-4.7-2.8-8.2c0-3.6,0.9-6.5,2.8-8.5s4.3-3,7.3-3c2.9,0,5.3,1,7.1,3s2.8,4.7,2.8,8.3c0,0.2,0,0.5,0,1h-16.3
			c0.1,2.4,0.8,4.2,2,5.5s2.7,1.9,4.5,1.9c1.3,0,2.5-0.4,3.4-1.1C-11.2,907.2-10.5,906.1-9.9,904.5z M-22,898.6h12.1
			c-0.2-1.8-0.6-3.2-1.4-4.1c-1.2-1.4-2.7-2.1-4.5-2.1c-1.7,0-3.1,0.6-4.2,1.7C-21.2,895.2-21.8,896.7-22,898.6z"/>
		<path class="st2" d="M12.6,903.6l3.6,0.5c-0.4,2.5-1.4,4.4-3,5.8s-3.6,2.1-6,2.1c-3,0-5.3-1-7.1-2.9s-2.7-4.7-2.7-8.3
			c0-2.3,0.4-4.4,1.2-6.1s2-3.1,3.5-3.9c1.6-0.9,3.3-1.3,5.2-1.3c2.4,0,4.3,0.6,5.8,1.8c1.5,1.2,2.5,2.9,2.9,5.1l-3.6,0.6
			c-0.3-1.5-0.9-2.5-1.8-3.3c-0.9-0.7-1.9-1.1-3.1-1.1c-1.8,0-3.4,0.7-4.5,2c-1.2,1.3-1.7,3.4-1.7,6.3s0.6,5,1.7,6.3
			c1.1,1.3,2.6,2,4.4,2c1.4,0,2.6-0.4,3.6-1.3C11.7,906.8,12.3,905.4,12.6,903.6z"/>
		<path class="st2" d="M19.3,911.5v-29.9H23v10.7c1.7-2,3.9-3,6.5-3c1.6,0,3,0.3,4.2,0.9s2,1.5,2.5,2.6s0.8,2.7,0.8,4.9v13.7h-3.7
			v-13.7c0-1.8-0.4-3.2-1.2-4s-1.9-1.3-3.4-1.3c-1.1,0-2.1,0.3-3.1,0.8c-1,0.6-1.6,1.3-2,2.3s-0.6,2.3-0.6,4v11.8h-3.7V911.5z"/>
		<path class="st2" d="M42.6,911.5v-21.6h3.3v3.1c1.6-2.4,3.9-3.6,6.9-3.6c1.3,0,2.5,0.2,3.6,0.7s1.9,1.1,2.5,1.8
			c0.5,0.8,0.9,1.7,1.1,2.7c0.1,0.7,0.2,1.9,0.2,3.6v13.3h-3.7v-13.2c0-1.5-0.1-2.6-0.4-3.4c-0.3-0.7-0.8-1.3-1.5-1.8
			c-0.7-0.4-1.6-0.7-2.6-0.7c-1.6,0-2.9,0.5-4,1.5s-1.7,2.9-1.7,5.6v11.8h-3.7C42.6,911.3,42.6,911.5,42.6,911.5z"/>
		<path class="st2" d="M64.4,900.7c0-4,1.1-7,3.3-8.9c1.9-1.6,4.1-2.4,6.8-2.4c3,0,5.4,1,7.3,2.9c1.9,2,2.8,4.6,2.8,8.1
			c0,2.8-0.4,5-1.3,6.6c-0.8,1.6-2.1,2.8-3.6,3.7c-1.6,0.9-3.3,1.3-5.2,1.3c-3,0-5.5-1-7.3-2.9C65.3,907.1,64.4,904.3,64.4,900.7z
			 M68.2,900.7c0,2.8,0.6,4.8,1.8,6.2c1.2,1.4,2.7,2.1,4.6,2.1c1.8,0,3.3-0.7,4.5-2.1s1.8-3.5,1.8-6.3c0-2.7-0.6-4.7-1.8-6.1
			c-1.2-1.4-2.7-2.1-4.5-2.1s-3.4,0.7-4.6,2.1C68.8,895.8,68.2,897.9,68.2,900.7z"/>
		<path class="st2" d="M88.9,911.5v-29.9h3.7v29.9H88.9z"/>
		<path class="st2" d="M96.9,900.7c0-4,1.1-7,3.3-8.9c1.9-1.6,4.1-2.4,6.8-2.4c3,0,5.4,1,7.3,2.9c1.9,2,2.8,4.6,2.8,8.1
			c0,2.8-0.4,5-1.3,6.6c-0.8,1.6-2.1,2.8-3.6,3.7c-1.6,0.9-3.3,1.3-5.2,1.3c-3,0-5.5-1-7.3-2.9C97.8,907.1,96.9,904.3,96.9,900.7z
			 M100.7,900.7c0,2.8,0.6,4.8,1.8,6.2c1.2,1.4,2.7,2.1,4.6,2.1c1.8,0,3.3-0.7,4.5-2.1s1.8-3.5,1.8-6.3c0-2.7-0.6-4.7-1.8-6.1
			s-2.7-2.1-4.5-2.1s-3.4,0.7-4.6,2.1C101.3,895.8,100.7,897.9,100.7,900.7z"/>
		<path class="st2" d="M120.8,913.3l3.6,0.5c0.1,1.1,0.6,1.9,1.2,2.4c0.9,0.7,2.2,1,3.7,1c1.7,0,3-0.3,3.9-1s1.5-1.6,1.9-2.9
			c0.2-0.7,0.3-2.3,0.3-4.7c-1.6,1.9-3.6,2.8-6,2.8c-3,0-5.3-1.1-6.9-3.2c-1.6-2.1-2.4-4.7-2.4-7.7c0-2.1,0.4-4,1.1-5.7
			c0.7-1.7,1.8-3.1,3.3-4s3.1-1.4,5-1.4c2.6,0,4.7,1,6.3,3.1v-2.6h3.4v18.7c0,3.4-0.3,5.8-1,7.2s-1.8,2.5-3.3,3.3s-3.3,1.2-5.5,1.2
			c-2.6,0-4.7-0.6-6.3-1.7C121.5,917.4,120.8,915.6,120.8,913.3z M123.8,900.3c0,2.8,0.6,4.9,1.7,6.2c1.1,1.3,2.5,2,4.2,2
			s3.1-0.6,4.2-1.9c1.1-1.3,1.7-3.3,1.7-6.1c0-2.7-0.6-4.6-1.8-6c-1.2-1.3-2.6-2-4.2-2c-1.6,0-3,0.7-4.2,2S123.8,897.7,123.8,900.3z
			"/>
		<path class="st2" d="M144.7,885.9v-4.2h3.7v4.2H144.7z M144.7,911.5v-21.6h3.7v21.6H144.7z"/>
		<path class="st2" d="M168.8,904.5l3.8,0.5c-0.6,2.2-1.7,3.9-3.3,5.2c-1.6,1.2-3.7,1.8-6.2,1.8c-3.2,0-5.7-1-7.5-2.9
			c-1.9-2-2.8-4.7-2.8-8.2c0-3.6,0.9-6.5,2.8-8.5c1.9-2,4.3-3,7.3-3c2.9,0,5.3,1,7.1,3s2.8,4.7,2.8,8.3c0,0.2,0,0.5,0,1h-16.3
			c0.1,2.4,0.8,4.2,2,5.5s2.7,1.9,4.5,1.9c1.3,0,2.5-0.4,3.4-1.1C167.5,907.2,168.2,906.1,168.8,904.5z M156.7,898.6h12.1
			c-0.2-1.8-0.6-3.2-1.4-4.1c-1.2-1.4-2.7-2.1-4.5-2.1c-1.7,0-3.1,0.6-4.2,1.7C157.5,895.2,156.9,896.7,156.7,898.6z"/>
		<path class="st2" d="M175.7,905.1l3.6-0.6c0.2,1.5,0.8,2.6,1.7,3.3c0.9,0.8,2.2,1.2,3.9,1.2s2.9-0.3,3.8-1
			c0.8-0.7,1.2-1.5,1.2-2.4c0-0.8-0.4-1.5-1.1-2c-0.5-0.3-1.8-0.7-3.8-1.2c-2.7-0.7-4.6-1.3-5.6-1.8s-1.8-1.2-2.4-2.1
			c-0.5-0.9-0.8-1.8-0.8-2.9c0-1,0.2-1.9,0.7-2.7c0.4-0.8,1-1.5,1.8-2c0.6-0.4,1.3-0.8,2.3-1.1c1-0.3,2-0.4,3.2-0.4
			c1.7,0,3.2,0.2,4.5,0.7s2.2,1.2,2.8,2s1,2,1.3,3.4l-3.6,0.5c-0.2-1.1-0.6-2-1.4-2.6c-0.8-0.6-1.9-0.9-3.3-0.9
			c-1.7,0-2.9,0.3-3.6,0.8c-0.7,0.6-1.1,1.2-1.1,2c0,0.5,0.1,0.9,0.4,1.3c0.3,0.4,0.8,0.7,1.4,1c0.4,0.1,1.4,0.4,3.2,0.9
			c2.6,0.7,4.4,1.3,5.4,1.7c1,0.4,1.8,1.1,2.4,1.9c0.6,0.8,0.9,1.9,0.9,3.1s-0.4,2.4-1.1,3.5s-1.7,1.9-3.1,2.5s-2.9,0.9-4.6,0.9
			c-2.8,0-5-0.6-6.4-1.8S176.1,907.4,175.7,905.1z"/>
	</g>
	<path class="st3" d="M-700,797.4C-700,672.9-599.1,572-474.6,572s225.4,100.9,225.4,225.4s-100.9,225.4-225.4,225.4
		S-700,921.9-700,797.4z"/>
	<g class="st1">
		<path class="st2" d="M-534.3,743.5c-3.8-1.4-6.5-3.3-8.3-5.9c-1.8-2.5-2.7-5.6-2.7-9.2c0-5.4,1.9-9.9,5.8-13.5
			c3.9-3.7,9-5.5,15.4-5.5c6.4,0,11.6,1.9,15.5,5.6c3.9,3.7,5.9,8.3,5.9,13.7c0,3.4-0.9,6.4-2.7,8.9c-1.8,2.5-4.5,4.5-8.2,5.9
			c4.5,1.5,8,3.9,10.3,7.1c2.4,3.3,3.5,7.2,3.5,11.8c0,6.3-2.2,11.6-6.7,15.9c-4.5,4.3-10.3,6.4-17.6,6.4c-7.3,0-13.1-2.2-17.6-6.5
			s-6.7-9.7-6.7-16.1c0-4.8,1.2-8.8,3.6-12C-542.3,746.9-538.8,744.7-534.3,743.5z M-539,762.2c0,2.6,0.6,5.1,1.8,7.5s3,4.3,5.5,5.6
			c2.4,1.3,5,2,7.8,2c4.3,0,7.9-1.4,10.7-4.2s4.2-6.3,4.2-10.6c0-4.4-1.5-8-4.3-10.8c-2.9-2.8-6.5-4.3-10.9-4.3
			c-4.3,0-7.8,1.4-10.6,4.2C-537.6,754.5-539,758-539,762.2z M-536.1,728.2c0,3.5,1.1,6.3,3.4,8.5c2.2,2.2,5.2,3.3,8.7,3.3
			s6.3-1.1,8.6-3.3c2.2-2.2,3.3-4.9,3.3-8.1c0-3.3-1.1-6.1-3.4-8.4c-2.3-2.3-5.2-3.4-8.6-3.4c-3.5,0-6.3,1.1-8.6,3.3
			C-535,722.5-536.1,725.1-536.1,728.2z"/>
		<path class="st2" d="M-489.6,766.5l8.7-0.8c0.7,4.1,2.1,7.1,4.2,8.9c2.1,1.8,4.7,2.8,8,2.8c2.8,0,5.2-0.6,7.3-1.9
			c2.1-1.3,3.8-3,5.2-5.1c1.3-2.1,2.5-5,3.4-8.6s1.4-7.3,1.4-11.1c0-0.4,0-1-0.1-1.8c-1.8,2.9-4.3,5.2-7.4,7s-6.5,2.7-10.2,2.7
			c-6.1,0-11.3-2.2-15.5-6.6s-6.3-10.3-6.3-17.5c0-7.5,2.2-13.5,6.6-18c4.4-4.6,9.9-6.8,16.6-6.8c4.8,0,9.2,1.3,13.1,3.9
			c4,2.6,7,6.3,9.1,11c2.1,4.8,3.1,11.7,3.1,20.7c0,9.4-1,16.9-3.1,22.5c-2,5.6-5.1,9.8-9.1,12.7s-8.8,4.4-14.2,4.4
			c-5.8,0-10.5-1.6-14.1-4.8C-486.7,776.8-488.9,772.3-489.6,766.5z M-452.5,733.9c0-5.2-1.4-9.3-4.1-12.4c-2.8-3-6.1-4.6-10-4.6
			c-4,0-7.5,1.6-10.5,4.9c-3,3.3-4.5,7.5-4.5,12.8c0,4.7,1.4,8.5,4.2,11.4c2.8,2.9,6.3,4.4,10.5,4.4s7.6-1.5,10.3-4.4
			C-453.9,743.2-452.5,739.1-452.5,733.9z"/>
	</g>
	<g class="st1">
		<path class="st2" d="M-440.8,727.5c0-5.3,1.3-9.7,4-13.4c2.6-3.7,6.5-5.5,11.5-5.5c4.6,0,8.5,1.7,11.5,5s4.6,8.2,4.6,14.6
			c0,6.2-1.5,11-4.6,14.4s-6.8,5.1-11.3,5.1s-8.2-1.7-11.1-5S-440.8,734.2-440.8,727.5z M-425,714.8c-2.2,0-4.1,1-5.6,2.9
			s-2.2,5.5-2.2,10.7c0,4.7,0.8,8.1,2.3,10s3.4,2.9,5.6,2.9c2.3,0,4.2-1,5.7-2.9s2.2-5.5,2.2-10.7c0-4.8-0.8-8.1-2.3-10
			C-420.9,715.7-422.8,714.8-425,714.8z M-425,786.2l40.3-77.7h7.3l-40.1,77.7H-425z M-393.1,766.2c0-5.3,1.3-9.8,4-13.4
			c2.6-3.7,6.5-5.5,11.6-5.5c4.6,0,8.5,1.7,11.5,5s4.5,8.2,4.5,14.6c0,6.2-1.5,11-4.6,14.4s-6.9,5.1-11.4,5.1s-8.2-1.7-11.1-5
			S-393.1,772.9-393.1,766.2z M-377.3,753.5c-2.3,0-4.2,1-5.7,2.9s-2.2,5.5-2.2,10.7c0,4.7,0.8,8,2.3,10c1.5,1.9,3.4,2.9,5.6,2.9
			c2.3,0,4.2-1,5.7-2.9s2.2-5.5,2.2-10.7c0-4.8-0.8-8.1-2.3-10C-373.2,754.4-375.1,753.5-377.3,753.5z"/>
	</g>
	<g class="st1">
		<path class="st2" d="M-586.4,867v-29.9h10.3c2.3,0,4.1,0.1,5.3,0.4c1.7,0.4,3.2,1.1,4.4,2.1c1.6,1.3,2.8,3,3.5,5.1
			c0.8,2.1,1.2,4.4,1.2,7.1c0,2.3-0.3,4.3-0.8,6s-1.2,3.2-2,4.4c-0.8,1.1-1.7,2.1-2.7,2.7c-1,0.7-2.2,1.2-3.6,1.5
			c-1.4,0.3-3,0.5-4.8,0.5h-10.8L-586.4,867L-586.4,867z M-582.4,863.5h6.4c2,0,3.5-0.2,4.6-0.5c1.1-0.4,2-0.9,2.7-1.5
			c0.9-0.9,1.7-2.2,2.2-3.8c0.5-1.6,0.8-3.5,0.8-5.8c0-3.1-0.5-5.5-1.5-7.2s-2.3-2.8-3.7-3.4c-1.1-0.4-2.8-0.6-5.1-0.6h-6.3v22.8
			H-582.4z"/>
		<path class="st2" d="M-556.7,841.3v-4.2h3.7v4.2H-556.7z M-556.7,867v-21.6h3.7V867H-556.7z"/>
		<path class="st2" d="M-548.1,868.8l3.6,0.5c0.1,1.1,0.6,1.9,1.2,2.4c0.9,0.7,2.2,1,3.7,1c1.7,0,3-0.3,3.9-1
			c0.9-0.7,1.5-1.6,1.9-2.9c0.2-0.7,0.3-2.3,0.3-4.7c-1.6,1.9-3.6,2.8-6,2.8c-3,0-5.3-1.1-6.9-3.2c-1.6-2.1-2.4-4.7-2.4-7.7
			c0-2.1,0.4-4,1.1-5.7c0.7-1.7,1.8-3.1,3.3-4s3.1-1.4,5-1.4c2.6,0,4.7,1,6.3,3.1v-2.6h3.4v18.7c0,3.4-0.3,5.8-1,7.2
			c-0.7,1.4-1.8,2.5-3.3,3.3s-3.3,1.2-5.5,1.2c-2.6,0-4.7-0.6-6.3-1.7C-547.4,872.9-548.2,871.1-548.1,868.8z M-545.1,855.8
			c0,2.8,0.6,4.9,1.7,6.2c1.1,1.3,2.5,2,4.2,2s3.1-0.6,4.2-1.9s1.7-3.3,1.7-6.1c0-2.7-0.6-4.6-1.8-6c-1.2-1.3-2.6-2-4.2-2
			s-3,0.7-4.2,2S-545.1,853.2-545.1,855.8z"/>
		<path class="st2" d="M-524.2,841.3v-4.2h3.7v4.2H-524.2z M-524.2,867v-21.6h3.7V867H-524.2z"/>
		<path class="st2" d="M-506.9,863.7l0.5,3.2c-1,0.2-2,0.3-2.8,0.3c-1.3,0-2.4-0.2-3.1-0.6c-0.7-0.4-1.3-1-1.5-1.7
			c-0.3-0.7-0.4-2.1-0.4-4.3v-12.4h-2.7v-2.9h2.7v-5.4l3.6-2.2v7.6h3.7v2.9h-3.7v12.7c0,1,0.1,1.7,0.2,2s0.3,0.5,0.6,0.7
			c0.3,0.2,0.7,0.3,1.3,0.3C-508.1,863.9-507.6,863.8-506.9,863.7z"/>
		<path class="st2" d="M-489.2,864.3c-1.4,1.2-2.7,2-3.9,2.4c-1.3,0.5-2.6,0.7-4,0.7c-2.4,0-4.2-0.6-5.5-1.7
			c-1.3-1.2-1.9-2.6-1.9-4.5c0-1.1,0.2-2,0.7-2.9s1.1-1.6,1.9-2.1s1.7-0.9,2.6-1.2c0.7-0.2,1.8-0.4,3.3-0.6c3-0.4,5.1-0.8,6.5-1.3
			c0-0.5,0-0.8,0-1c0-1.5-0.3-2.5-1-3.2c-0.9-0.8-2.3-1.2-4.2-1.2c-1.7,0-3,0.3-3.8,0.9s-1.4,1.7-1.8,3.2l-3.6-0.5
			c0.3-1.5,0.9-2.8,1.6-3.7c0.7-0.9,1.8-1.7,3.2-2.2c1.4-0.5,3.1-0.8,4.9-0.8s3.3,0.2,4.5,0.7c1.2,0.4,2,1,2.5,1.6
			c0.5,0.7,0.9,1.5,1.1,2.5c0.1,0.6,0.2,1.8,0.2,3.4v4.9c0,3.4,0.1,5.6,0.2,6.5s0.5,1.8,0.9,2.6h-3.8
			C-488.9,866.2-489.1,865.3-489.2,864.3z M-489.5,856.1c-1.3,0.5-3.3,1-6,1.4c-1.5,0.2-2.6,0.5-3.2,0.7s-1.1,0.7-1.4,1.2
			s-0.5,1.1-0.5,1.7c0,1,0.4,1.8,1.1,2.4c0.7,0.7,1.8,1,3.3,1c1.4,0,2.7-0.3,3.8-0.9c1.1-0.6,1.9-1.5,2.4-2.5
			c0.4-0.8,0.6-2.1,0.6-3.7L-489.5,856.1L-489.5,856.1z"/>
		<path class="st2" d="M-480.2,867v-29.9h3.7V867H-480.2z"/>
	</g>
	<g class="st1">
		<path class="st2" d="M-450.1,863.5c-1.2,1.3-2.5,2.4-4,3c-1.4,0.7-3,1-4.6,1c-3.1,0-5.5-1-7.3-3.1c-1.5-1.7-2.2-3.6-2.2-5.6
			c0-1.8,0.6-3.5,1.8-5c1.2-1.5,3-2.8,5.3-3.9c-1.3-1.5-2.2-2.8-2.7-3.8c-0.4-1-0.7-1.9-0.7-2.8c0-1.8,0.7-3.4,2.1-4.7
			c1.4-1.3,3.2-2,5.3-2c2,0,3.7,0.6,5,1.9s1.9,2.8,1.9,4.5c0,2.8-1.9,5.3-5.6,7.3l5.4,6.8c0.6-1.2,1.1-2.6,1.4-4.2l3.8,0.8
			c-0.7,2.6-1.5,4.8-2.6,6.4c1.4,1.8,2.9,3.3,4.7,4.6l-2.5,2.9C-447,866.7-448.5,865.3-450.1,863.5z M-452.4,860.6l-6.7-8.3
			c-2,1.2-3.3,2.3-4,3.3s-1,2-1,3c0,1.2,0.5,2.5,1.4,3.8c1,1.3,2.3,2,4.1,2c1.1,0,2.2-0.3,3.4-1
			C-454.1,862.5-453.1,861.7-452.4,860.6z M-457.6,847.9c1.6-0.9,2.6-1.8,3.1-2.5s0.7-1.5,0.7-2.3c0-1-0.3-1.9-1-2.5
			c-0.6-0.6-1.5-1-2.4-1c-1,0-1.8,0.3-2.5,1s-1,1.4-1,2.3c0,0.5,0.1,0.9,0.4,1.5c0.2,0.5,0.6,1,1.1,1.6L-457.6,847.9z"/>
	</g>
	<g class="st1">
		<path class="st2" d="M-417,867v-2.7c-1.4,2.1-3.4,3.2-6.1,3.2c-1.7,0-3.3-0.5-4.8-1.4s-2.6-2.3-3.4-4s-1.2-3.7-1.2-5.9
			c0-2.2,0.4-4.1,1.1-5.9s1.8-3.1,3.2-4c1.4-0.9,3.1-1.4,4.8-1.4c1.3,0,2.5,0.3,3.5,0.8c1,0.6,1.8,1.3,2.5,2.2v-10.7h3.6v29.9
			L-417,867L-417,867z M-428.6,856.2c0,2.8,0.6,4.8,1.8,6.2c1.2,1.4,2.5,2.1,4.1,2.1s3-0.7,4.1-2s1.7-3.3,1.7-6c0-3-0.6-5.1-1.7-6.5
			s-2.5-2.1-4.2-2.1c-1.6,0-3,0.7-4.1,2C-428,851.2-428.6,853.3-428.6,856.2z"/>
		<path class="st2" d="M-393.7,864.3c-1.4,1.2-2.7,2-3.9,2.4c-1.3,0.5-2.6,0.7-4,0.7c-2.4,0-4.2-0.6-5.5-1.7
			c-1.3-1.2-1.9-2.6-1.9-4.5c0-1.1,0.2-2,0.7-2.9s1.1-1.6,1.9-2.1s1.7-0.9,2.6-1.2c0.7-0.2,1.8-0.4,3.3-0.6c3-0.4,5.1-0.8,6.5-1.3
			c0-0.5,0-0.8,0-1c0-1.5-0.3-2.5-1-3.2c-0.9-0.8-2.3-1.2-4.2-1.2c-1.7,0-3,0.3-3.8,0.9s-1.4,1.7-1.8,3.2l-3.6-0.5
			c0.3-1.5,0.9-2.8,1.6-3.7c0.7-0.9,1.8-1.7,3.2-2.2c1.4-0.5,3.1-0.8,4.9-0.8s3.3,0.2,4.5,0.7c1.2,0.4,2,1,2.5,1.6
			c0.5,0.7,0.9,1.5,1.1,2.5c0.1,0.6,0.2,1.8,0.2,3.4v4.9c0,3.4,0.1,5.6,0.2,6.5s0.5,1.8,0.9,2.6h-3.8
			C-393.3,866.2-393.6,865.3-393.7,864.3z M-394,856.1c-1.3,0.5-3.3,1-6,1.4c-1.5,0.2-2.6,0.5-3.2,0.7s-1.1,0.7-1.4,1.2
			s-0.5,1.1-0.5,1.7c0,1,0.4,1.8,1.1,2.4c0.7,0.7,1.8,1,3.3,1c1.4,0,2.7-0.3,3.8-0.9c1.1-0.6,1.9-1.5,2.4-2.5
			c0.4-0.8,0.6-2.1,0.6-3.7L-394,856.1L-394,856.1z"/>
		<path class="st2" d="M-376.6,863.7l0.5,3.2c-1,0.2-2,0.3-2.8,0.3c-1.3,0-2.4-0.2-3.1-0.6s-1.3-1-1.5-1.7c-0.3-0.7-0.4-2.1-0.4-4.3
			v-12.4h-2.7v-2.9h2.7v-5.4l3.6-2.2v7.6h3.7v2.9h-3.7v12.7c0,1,0.1,1.7,0.2,2s0.3,0.5,0.6,0.7c0.3,0.2,0.7,0.3,1.3,0.3
			C-377.8,863.9-377.2,863.8-376.6,863.7z"/>
		<path class="st2" d="M-358.9,864.3c-1.4,1.2-2.7,2-3.9,2.4c-1.3,0.5-2.6,0.7-4,0.7c-2.4,0-4.2-0.6-5.5-1.7
			c-1.3-1.2-1.9-2.6-1.9-4.5c0-1.1,0.2-2,0.7-2.9s1.1-1.6,1.9-2.1s1.7-0.9,2.6-1.2c0.7-0.2,1.8-0.4,3.3-0.6c3-0.4,5.1-0.8,6.5-1.3
			c0-0.5,0-0.8,0-1c0-1.5-0.3-2.5-1-3.2c-0.9-0.8-2.3-1.2-4.2-1.2c-1.7,0-3,0.3-3.8,0.9s-1.4,1.7-1.8,3.2l-3.6-0.5
			c0.3-1.5,0.9-2.8,1.6-3.7c0.7-0.9,1.8-1.7,3.2-2.2c1.4-0.5,3.1-0.8,4.9-0.8s3.3,0.2,4.5,0.7c1.2,0.4,2,1,2.5,1.6
			c0.5,0.7,0.9,1.5,1.1,2.5c0.1,0.6,0.2,1.8,0.2,3.4v4.9c0,3.4,0.1,5.6,0.2,6.5s0.5,1.8,0.9,2.6h-3.8
			C-358.5,866.2-358.8,865.3-358.9,864.3z M-359.2,856.1c-1.3,0.5-3.3,1-6,1.4c-1.5,0.2-2.6,0.5-3.2,0.7s-1.1,0.7-1.4,1.2
			s-0.5,1.1-0.5,1.7c0,1,0.4,1.8,1.1,2.4c0.7,0.7,1.8,1,3.3,1c1.4,0,2.7-0.3,3.8-0.9c1.1-0.6,1.9-1.5,2.4-2.5
			c0.4-0.8,0.6-2.1,0.6-3.7L-359.2,856.1L-359.2,856.1z"/>
	</g>
	<g class="st1">
		<path class="st2" d="M-346.1,858v-3.7h11.3v3.7H-346.1z"/>
	</g>
	<g class="st1">
		<path class="st2" d="M-602.7,914.3v-2.7c-1.4,2.1-3.4,3.2-6.1,3.2c-1.7,0-3.3-0.5-4.8-1.4s-2.6-2.3-3.4-4
			c-0.8-1.7-1.2-3.7-1.2-5.9c0-2.2,0.4-4.1,1.1-5.9c0.7-1.8,1.8-3.1,3.2-4s3.1-1.4,4.8-1.4c1.3,0,2.5,0.3,3.5,0.8
			c1,0.6,1.8,1.3,2.5,2.2v-10.7h3.6v29.9L-602.7,914.3L-602.7,914.3z M-614.3,903.5c0,2.8,0.6,4.8,1.8,6.2c1.2,1.4,2.5,2.1,4.1,2.1
			s3-0.7,4.1-2s1.7-3.3,1.7-6c0-3-0.6-5.1-1.7-6.5c-1.1-1.4-2.5-2.1-4.2-2.1c-1.6,0-3,0.7-4.1,2
			C-613.8,898.5-614.3,900.6-614.3,903.5z"/>
		<path class="st2" d="M-593.6,914.3v-21.6h3.3v3.3c0.8-1.5,1.6-2.5,2.3-3s1.5-0.7,2.4-0.7c1.2,0,2.5,0.4,3.8,1.2l-1.3,3.4
			c-0.9-0.5-1.8-0.8-2.7-0.8c-0.8,0-1.5,0.2-2.2,0.7c-0.6,0.5-1.1,1.2-1.4,2c-0.4,1.3-0.6,2.7-0.6,4.3v11.3h-3.6V914.3z"/>
		<path class="st2" d="M-579.7,888.6v-4.2h3.7v4.2H-579.7z M-579.7,914.3v-21.6h3.7v21.6H-579.7z"/>
		<path class="st2" d="M-564.4,914.3l-8.2-21.6h3.9l4.6,13c0.5,1.4,1,2.9,1.4,4.4c0.3-1.1,0.8-2.5,1.4-4.1l4.8-13.2h3.8l-8.2,21.6
			h-3.5V914.3z"/>
		<path class="st2" d="M-534.7,907.3l3.8,0.5c-0.6,2.2-1.7,3.9-3.3,5.2c-1.6,1.2-3.7,1.8-6.2,1.8c-3.2,0-5.7-1-7.5-2.9
			c-1.9-2-2.8-4.7-2.8-8.2c0-3.6,0.9-6.5,2.8-8.5c1.9-2,4.3-3,7.3-3c2.9,0,5.3,1,7.1,3c1.8,2,2.8,4.7,2.8,8.3c0,0.2,0,0.5,0,1h-16.1
			c0.1,2.4,0.8,4.2,2,5.5s2.7,1.9,4.5,1.9c1.3,0,2.5-0.4,3.4-1.1C-536,910-535.3,908.9-534.7,907.3z M-546.8,901.4h12.1
			c-0.2-1.8-0.6-3.2-1.4-4.1c-1.2-1.4-2.7-2.1-4.5-2.1c-1.7,0-3.1,0.6-4.2,1.7C-546,898-546.6,899.5-546.8,901.4z"/>
		<path class="st2" d="M-526.3,914.3v-21.6h3.3v3.1c1.6-2.4,3.9-3.6,6.9-3.6c1.3,0,2.5,0.2,3.6,0.7c1.1,0.5,1.9,1.1,2.5,1.8
			c0.5,0.8,0.9,1.7,1.1,2.7c0.1,0.7,0.2,1.9,0.2,3.6v13.3h-3.7v-13.2c0-1.5-0.1-2.6-0.4-3.4c-0.3-0.7-0.8-1.3-1.5-1.8
			c-0.7-0.4-1.6-0.7-2.6-0.7c-1.6,0-2.9,0.5-4,1.5s-1.7,2.9-1.7,5.6v11.8h-3.7V914.3L-526.3,914.3z"/>
		<path class="st2" d="M-490.6,914.3v-18.8h-3.2v-2.9h3.2v-2.3c0-1.5,0.1-2.5,0.4-3.2c0.4-1,1-1.7,1.9-2.3c0.9-0.6,2.1-0.9,3.7-0.9
			c1,0,2.2,0.1,3.4,0.4l-0.6,3.2c-0.8-0.1-1.5-0.2-2.2-0.2c-1.1,0-1.9,0.2-2.4,0.7s-0.7,1.4-0.7,2.7v2h4.2v2.9h-4.2v18.8
			L-490.6,914.3L-490.6,914.3z"/>
		<path class="st2" d="M-481.3,903.5c0-4,1.1-7,3.3-8.9c1.9-1.6,4.1-2.4,6.8-2.4c3,0,5.4,1,7.3,2.9c1.9,2,2.8,4.6,2.8,8.1
			c0,2.8-0.4,5-1.3,6.6c-0.8,1.6-2.1,2.8-3.6,3.7c-1.6,0.9-3.3,1.3-5.2,1.3c-3,0-5.5-1-7.3-2.9
			C-480.3,909.9-481.3,907.1-481.3,903.5z M-477.5,903.5c0,2.8,0.6,4.8,1.8,6.2c1.2,1.4,2.7,2.1,4.6,2.1c1.8,0,3.3-0.7,4.5-2.1
			s1.8-3.5,1.8-6.3c0-2.7-0.6-4.7-1.8-6.1c-1.2-1.4-2.7-2.1-4.5-2.1s-3.4,0.7-4.6,2.1C-476.9,898.6-477.5,900.7-477.5,903.5z"/>
		<path class="st2" d="M-442.5,914.3v-3.2c-1.7,2.4-4,3.7-6.9,3.7c-1.3,0-2.5-0.2-3.6-0.7s-1.9-1.1-2.5-1.8
			c-0.5-0.7-0.9-1.6-1.1-2.7c-0.1-0.7-0.2-1.9-0.2-3.4v-13.4h3.7v12c0,1.9,0.1,3.2,0.2,3.9c0.2,1,0.7,1.7,1.5,2.3
			c0.7,0.6,1.7,0.8,2.8,0.8s2.1-0.3,3.1-0.8c1-0.6,1.6-1.3,2-2.3s0.6-2.4,0.6-4.2v-11.6h3.7v21.6h-3.3L-442.5,914.3L-442.5,914.3z"
			/>
		<path class="st2" d="M-433.5,914.3v-21.6h3.3v3.1c1.6-2.4,3.9-3.6,6.9-3.6c1.3,0,2.5,0.2,3.6,0.7s1.9,1.1,2.5,1.8
			c0.5,0.8,0.9,1.7,1.1,2.7c0.1,0.7,0.2,1.9,0.2,3.6v13.3h-3.7v-13.2c0-1.5-0.1-2.6-0.4-3.4c-0.3-0.7-0.8-1.3-1.5-1.8
			c-0.7-0.4-1.6-0.7-2.6-0.7c-1.6,0-2.9,0.5-4,1.5s-1.7,2.9-1.7,5.6v11.8h-3.7L-433.5,914.3L-433.5,914.3z"/>
		<path class="st2" d="M-396.2,914.3v-2.7c-1.4,2.1-3.4,3.2-6.1,3.2c-1.7,0-3.3-0.5-4.8-1.4s-2.6-2.3-3.4-4s-1.2-3.7-1.2-5.9
			c0-2.2,0.4-4.1,1.1-5.9s1.8-3.1,3.2-4c1.4-0.9,3.1-1.4,4.8-1.4c1.3,0,2.5,0.3,3.5,0.8c1,0.6,1.8,1.3,2.5,2.2v-10.7h3.6v29.9
			L-396.2,914.3L-396.2,914.3z M-407.8,903.5c0,2.8,0.6,4.8,1.8,6.2c1.2,1.4,2.5,2.1,4.1,2.1s3-0.7,4.1-2s1.7-3.3,1.7-6
			c0-3-0.6-5.1-1.7-6.5s-2.5-2.1-4.2-2.1c-1.6,0-3,0.7-4.1,2C-407.3,898.5-407.8,900.6-407.8,903.5z"/>
		<path class="st2" d="M-372.9,911.6c-1.4,1.2-2.7,2-3.9,2.4c-1.3,0.5-2.6,0.7-4,0.7c-2.4,0-4.2-0.6-5.5-1.7
			c-1.3-1.2-1.9-2.6-1.9-4.5c0-1.1,0.2-2,0.7-2.9s1.1-1.6,1.9-2.1s1.7-0.9,2.6-1.2c0.7-0.2,1.8-0.4,3.3-0.6c3-0.4,5.1-0.8,6.5-1.3
			c0-0.5,0-0.8,0-1c0-1.5-0.3-2.5-1-3.2c-0.9-0.8-2.3-1.2-4.2-1.2c-1.7,0-3,0.3-3.8,0.9s-1.4,1.7-1.8,3.2l-3.6-0.5
			c0.3-1.5,0.9-2.8,1.6-3.7c0.7-0.9,1.8-1.7,3.2-2.2c1.4-0.5,3.1-0.8,4.9-0.8s3.3,0.2,4.5,0.7c1.2,0.4,2,1,2.5,1.6
			c0.5,0.7,0.9,1.5,1.1,2.5c0.1,0.6,0.2,1.8,0.2,3.4v4.9c0,3.4,0.1,5.6,0.2,6.5s0.5,1.8,0.9,2.6h-3.8
			C-372.6,913.5-372.8,912.6-372.9,911.6z M-373.2,903.4c-1.3,0.5-3.3,1-6,1.4c-1.5,0.2-2.6,0.5-3.2,0.7s-1.1,0.7-1.4,1.2
			s-0.5,1.1-0.5,1.7c0,1,0.4,1.8,1.1,2.4c0.7,0.7,1.8,1,3.3,1c1.4,0,2.7-0.3,3.8-0.9c1.1-0.6,1.9-1.5,2.4-2.5
			c0.4-0.8,0.6-2.1,0.6-3.7L-373.2,903.4L-373.2,903.4z"/>
		<path class="st2" d="M-355.8,911l0.5,3.2c-1,0.2-2,0.3-2.8,0.3c-1.3,0-2.4-0.2-3.1-0.6s-1.3-1-1.5-1.7c-0.3-0.7-0.4-2.1-0.4-4.3
			v-12.5h-2.7v-2.9h2.7v-5.4l3.6-2.2v7.6h3.7v2.9h-3.7v12.7c0,1,0.1,1.7,0.2,2s0.3,0.5,0.6,0.7c0.3,0.2,0.7,0.3,1.3,0.3
			C-357,911.2-356.5,911.1-355.8,911z"/>
		<path class="st2" d="M-352.2,888.6v-4.2h3.7v4.2H-352.2z M-352.2,914.3v-21.6h3.7v21.6H-352.2z"/>
		<path class="st2" d="M-344.3,903.5c0-4,1.1-7,3.3-8.9c1.9-1.6,4.1-2.4,6.8-2.4c3,0,5.4,1,7.3,2.9c1.9,2,2.8,4.6,2.8,8.1
			c0,2.8-0.4,5-1.3,6.6c-0.8,1.6-2.1,2.8-3.6,3.7c-1.6,0.9-3.3,1.3-5.2,1.3c-3,0-5.5-1-7.3-2.9
			C-343.4,909.9-344.3,907.1-344.3,903.5z M-340.5,903.5c0,2.8,0.6,4.8,1.8,6.2c1.2,1.4,2.7,2.1,4.6,2.1c1.8,0,3.3-0.7,4.5-2.1
			s1.8-3.5,1.8-6.3c0-2.7-0.6-4.7-1.8-6.1c-1.2-1.4-2.7-2.1-4.5-2.1s-3.4,0.7-4.6,2.1C-339.9,898.6-340.5,900.7-340.5,903.5z"/>
		<path class="st2" d="M-319.7,914.3v-21.6h3.3v3.1c1.6-2.4,3.9-3.6,6.9-3.6c1.3,0,2.5,0.2,3.6,0.7s1.9,1.1,2.5,1.8
			c0.5,0.8,0.9,1.7,1.1,2.7c0.1,0.7,0.2,1.9,0.2,3.6v13.3h-3.7v-13.2c0-1.5-0.1-2.6-0.4-3.4c-0.3-0.7-0.8-1.3-1.5-1.8
			c-0.7-0.4-1.6-0.7-2.6-0.7c-1.6,0-2.9,0.5-4,1.5s-1.7,2.9-1.7,5.6v11.8h-3.7L-319.7,914.3L-319.7,914.3z"/>
	</g>
	<path class="st3" d="M324.1,797.4C324.1,672.9,425,572,549.5,572s225.4,100.9,225.4,225.4S674,1022.8,549.5,1022.8
		S324.1,921.9,324.1,797.4z"/>
	<g class="st1">
		<path class="st2" d="M491.3,743.5c-3.8-1.4-6.5-3.3-8.3-5.9c-1.8-2.5-2.7-5.6-2.7-9.2c0-5.4,1.9-9.9,5.8-13.5
			c3.9-3.7,9-5.5,15.4-5.5s11.6,1.9,15.5,5.6c3.9,3.7,5.9,8.3,5.9,13.7c0,3.4-0.9,6.4-2.7,8.9s-4.5,4.5-8.2,5.9
			c4.5,1.5,8,3.9,10.3,7.1c2.4,3.3,3.5,7.2,3.5,11.8c0,6.3-2.2,11.6-6.7,15.9c-4.5,4.3-10.3,6.4-17.6,6.4s-13.1-2.2-17.6-6.5
			s-6.7-9.7-6.7-16.1c0-4.8,1.2-8.8,3.6-12C483.3,746.9,486.8,744.7,491.3,743.5z M486.5,762.2c0,2.6,0.6,5.1,1.8,7.5s3,4.3,5.5,5.6
			c2.4,1.3,5,2,7.8,2c4.3,0,7.9-1.4,10.7-4.2s4.2-6.3,4.2-10.6c0-4.4-1.5-8-4.3-10.8c-2.9-2.8-6.5-4.3-10.9-4.3
			c-4.3,0-7.8,1.4-10.6,4.2C487.9,754.5,486.5,758,486.5,762.2z M489.5,728.2c0,3.5,1.1,6.3,3.4,8.5c2.2,2.2,5.2,3.3,8.7,3.3
			s6.3-1.1,8.6-3.3c2.2-2.2,3.3-4.9,3.3-8.1c0-3.3-1.1-6.1-3.4-8.4s-5.2-3.4-8.6-3.4c-3.5,0-6.3,1.1-8.6,3.3
			C490.6,722.5,489.5,725.1,489.5,728.2z"/>
		<path class="st2" d="M581.6,727.8l-9,0.7c-0.8-3.6-1.9-6.1-3.4-7.7c-2.4-2.6-5.5-3.9-9.1-3.9c-2.9,0-5.4,0.8-7.6,2.4
			c-2.8,2.1-5.1,5.1-6.7,9.1c-1.6,4-2.5,9.7-2.6,17c2.2-3.3,4.8-5.8,8-7.4c3.2-1.6,6.5-2.4,9.9-2.4c6,0,11.2,2.2,15.4,6.7
			c4.2,4.4,6.4,10.2,6.4,17.2c0,4.6-1,8.9-3,12.9s-4.7,7-8.2,9.1s-7.4,3.2-11.9,3.2c-7.5,0-13.7-2.8-18.5-8.3s-7.1-14.7-7.1-27.4
			c0-14.2,2.6-24.6,7.9-31.1c4.6-5.6,10.8-8.4,18.6-8.4c5.8,0,10.5,1.6,14.3,4.9C578.6,717.6,580.8,722.1,581.6,727.8z M544.6,759.6
			c0,3.1,0.7,6.1,2,8.9c1.3,2.8,3.2,5,5.6,6.5c2.4,1.5,4.9,2.2,7.5,2.2c3.8,0,7.1-1.5,9.9-4.6c2.7-3.1,4.1-7.3,4.1-12.6
			c0-5.1-1.4-9.1-4.1-12c-2.7-2.9-6.1-4.4-10.3-4.4c-4.1,0-7.6,1.5-10.4,4.4C546,751,544.6,754.9,544.6,759.6z"/>
	</g>
	<g class="st1">
		<path class="st2" d="M584.8,727.5c0-5.3,1.3-9.7,4-13.4c2.6-3.7,6.5-5.5,11.5-5.5c4.6,0,8.5,1.7,11.5,5s4.5,8.2,4.5,14.6
			c0,6.2-1.5,11-4.6,14.4s-6.8,5.1-11.3,5.1s-8.2-1.7-11.1-5C586.3,739.2,584.8,734.2,584.8,727.5z M600.5,714.8
			c-2.2,0-4.1,1-5.6,2.9s-2.2,5.5-2.2,10.7c0,4.7,0.8,8.1,2.3,10s3.4,2.9,5.6,2.9c2.3,0,4.2-1,5.7-2.9s2.2-5.5,2.2-10.7
			c0-4.8-0.8-8.1-2.3-10C604.7,715.7,602.8,714.8,600.5,714.8z M600.6,786.2l40.3-77.7h7.3L608,786.2H600.6z M632.5,766.2
			c0-5.3,1.3-9.8,4-13.4c2.6-3.7,6.5-5.5,11.6-5.5c4.6,0,8.5,1.7,11.5,5s4.5,8.2,4.5,14.6c0,6.2-1.5,11-4.6,14.4s-6.9,5.1-11.4,5.1
			s-8.2-1.7-11.1-5C634,777.9,632.5,772.9,632.5,766.2z M648.3,753.5c-2.3,0-4.2,1-5.7,2.9s-2.2,5.5-2.2,10.7c0,4.7,0.8,8,2.3,10
			c1.5,1.9,3.4,2.9,5.6,2.9c2.3,0,4.2-1,5.7-2.9s2.2-5.5,2.2-10.7c0-4.8-0.8-8.1-2.3-10C652.4,754.4,650.5,753.5,648.3,753.5z"/>
	</g>
	<g class="st1">
		<path class="st2" d="M408.4,864.2v-29.9h11.2c2.3,0,4.1,0.3,5.5,0.9s2.5,1.5,3.2,2.8s1.2,2.6,1.2,3.9s-0.3,2.5-1,3.6
			s-1.7,2-3.1,2.7c1.8,0.5,3.2,1.4,4.2,2.7c1,1.3,1.5,2.8,1.5,4.5c0,1.4-0.3,2.7-0.9,3.9c-0.6,1.2-1.3,2.1-2.2,2.8
			c-0.9,0.7-2,1.1-3.3,1.5s-2.9,0.5-4.8,0.5L408.4,864.2L408.4,864.2z M412.4,846.9h6.5c1.8,0,3-0.1,3.8-0.3c1-0.3,1.8-0.8,2.3-1.5
			s0.8-1.6,0.8-2.6s-0.2-1.9-0.7-2.6s-1.2-1.3-2-1.5c-0.9-0.3-2.4-0.4-4.5-0.4h-6v8.9H412.4z M412.4,860.7h7.4c1.3,0,2.2,0,2.7-0.1
			c0.9-0.2,1.7-0.4,2.3-0.8c0.6-0.4,1.1-0.9,1.5-1.7c0.4-0.7,0.6-1.6,0.6-2.5c0-1.1-0.3-2.1-0.9-2.9s-1.4-1.4-2.4-1.7
			c-1-0.3-2.5-0.5-4.4-0.5h-6.9L412.4,860.7L412.4,860.7z"/>
		<path class="st2" d="M450.1,864.2V861c-1.7,2.4-4,3.7-6.9,3.7c-1.3,0-2.5-0.2-3.6-0.7s-1.9-1.1-2.5-1.8c-0.5-0.7-0.9-1.6-1.1-2.7
			c-0.1-0.7-0.2-1.9-0.2-3.4v-13.4h3.7v12c0,1.9,0.1,3.2,0.2,3.9c0.2,1,0.7,1.7,1.5,2.3c0.7,0.6,1.7,0.8,2.8,0.8s2.1-0.3,3.1-0.8
			c1-0.6,1.6-1.3,2-2.3s0.6-2.4,0.6-4.2v-11.6h3.7v21.6h-3.3L450.1,864.2L450.1,864.2z"/>
		<path class="st2" d="M457.7,857.7l3.6-0.6c0.2,1.5,0.8,2.6,1.7,3.3s2.2,1.2,3.9,1.2c1.7,0,2.9-0.3,3.8-1s1.2-1.5,1.2-2.4
			c0-0.8-0.4-1.5-1.1-2c-0.5-0.3-1.8-0.7-3.8-1.2c-2.7-0.7-4.6-1.3-5.6-1.8s-1.8-1.2-2.4-2.1c-0.5-0.9-0.8-1.8-0.8-2.9
			c0-1,0.2-1.9,0.7-2.7c0.4-0.8,1-1.5,1.8-2c0.6-0.4,1.3-0.8,2.3-1.1s2-0.4,3.2-0.4c1.7,0,3.2,0.2,4.5,0.7s2.2,1.2,2.8,2
			c0.6,0.8,1,2,1.3,3.4l-3.6,0.5c-0.2-1.1-0.6-2-1.4-2.6s-1.9-0.9-3.3-0.9c-1.7,0-2.9,0.3-3.6,0.8c-0.7,0.6-1.1,1.2-1.1,2
			c0,0.5,0.1,0.9,0.4,1.3s0.8,0.7,1.4,1c0.4,0.1,1.4,0.4,3.2,0.9c2.6,0.7,4.4,1.3,5.4,1.7c1,0.4,1.8,1.1,2.4,1.9s0.9,1.9,0.9,3.1
			s-0.4,2.4-1.1,3.5s-1.7,1.9-3.1,2.5s-2.9,0.9-4.6,0.9c-2.8,0-5-0.6-6.4-1.8C459,861.8,458.1,860,457.7,857.7z"/>
		<path class="st2" d="M480.1,838.5v-4.2h3.7v4.2H480.1z M480.1,864.2v-21.6h3.7v21.6H480.1z"/>
		<path class="st2" d="M489.3,864.2v-21.6h3.3v3.1c1.6-2.4,3.9-3.6,6.9-3.6c1.3,0,2.5,0.2,3.6,0.7s1.9,1.1,2.5,1.8
			c0.5,0.8,0.9,1.7,1.1,2.7c0.1,0.7,0.2,1.9,0.2,3.6v13.3h-3.7V851c0-1.5-0.1-2.6-0.4-3.4c-0.3-0.7-0.8-1.3-1.5-1.8
			c-0.7-0.4-1.6-0.7-2.6-0.7c-1.6,0-2.9,0.5-4,1.5s-1.7,2.9-1.7,5.6V864h-3.7V864.2z"/>
		<path class="st2" d="M527.3,857.2l3.8,0.5c-0.6,2.2-1.7,3.9-3.3,5.2c-1.6,1.2-3.7,1.8-6.2,1.8c-3.2,0-5.7-1-7.5-2.9
			c-1.9-2-2.8-4.7-2.8-8.2c0-3.6,0.9-6.5,2.8-8.5c1.9-2,4.3-3,7.3-3c2.9,0,5.3,1,7.1,3s2.8,4.7,2.8,8.3c0,0.2,0,0.5,0,1h-16.1
			c0.1,2.4,0.8,4.2,2,5.5s2.7,1.9,4.5,1.9c1.3,0,2.5-0.4,3.4-1.1C526,859.9,526.8,858.8,527.3,857.2z M515.3,851.3h12.1
			c-0.2-1.8-0.6-3.2-1.4-4.1c-1.2-1.4-2.7-2.1-4.5-2.1c-1.7,0-3.1,0.6-4.2,1.7C516.1,847.9,515.4,849.4,515.3,851.3z"/>
		<path class="st2" d="M534.3,857.7l3.6-0.6c0.2,1.5,0.8,2.6,1.7,3.3s2.2,1.2,3.9,1.2s2.9-0.3,3.8-1s1.2-1.5,1.2-2.4
			c0-0.8-0.4-1.5-1.1-2c-0.5-0.3-1.8-0.7-3.8-1.2c-2.7-0.7-4.6-1.3-5.6-1.8s-1.8-1.2-2.4-2.1c-0.5-0.9-0.8-1.8-0.8-2.9
			c0-1,0.2-1.9,0.7-2.7c0.4-0.8,1-1.5,1.8-2c0.6-0.4,1.3-0.8,2.3-1.1s2-0.4,3.2-0.4c1.7,0,3.2,0.2,4.5,0.7s2.2,1.2,2.8,2
			s1,2,1.3,3.4l-3.6,0.5c-0.2-1.1-0.6-2-1.4-2.6s-1.9-0.9-3.3-0.9c-1.7,0-2.9,0.3-3.6,0.8c-0.7,0.6-1.1,1.2-1.1,2
			c0,0.5,0.1,0.9,0.4,1.3c0.3,0.4,0.8,0.7,1.4,1c0.4,0.1,1.4,0.4,3.2,0.9c2.6,0.7,4.4,1.3,5.4,1.7c1,0.4,1.8,1.1,2.4,1.9
			c0.6,0.8,0.9,1.9,0.9,3.1s-0.4,2.4-1.1,3.5c-0.7,1.1-1.7,1.9-3.1,2.5s-2.9,0.9-4.6,0.9c-2.8,0-5-0.6-6.4-1.8
			C535.6,861.8,534.7,860,534.3,857.7z"/>
		<path class="st2" d="M555.1,857.7l3.6-0.6c0.2,1.5,0.8,2.6,1.7,3.3s2.2,1.2,3.9,1.2s2.9-0.3,3.8-1s1.2-1.5,1.2-2.4
			c0-0.8-0.4-1.5-1.1-2c-0.5-0.3-1.8-0.7-3.8-1.2c-2.7-0.7-4.6-1.3-5.6-1.8s-1.8-1.2-2.4-2.1c-0.5-0.9-0.8-1.8-0.8-2.9
			c0-1,0.2-1.9,0.7-2.7c0.4-0.8,1-1.5,1.8-2c0.6-0.4,1.3-0.8,2.3-1.1s2-0.4,3.2-0.4c1.7,0,3.2,0.2,4.5,0.7s2.2,1.2,2.8,2
			s1,2,1.3,3.4l-3.6,0.5c-0.2-1.1-0.6-2-1.4-2.6s-1.9-0.9-3.3-0.9c-1.7,0-2.9,0.3-3.6,0.8c-0.7,0.6-1.1,1.2-1.1,2
			c0,0.5,0.1,0.9,0.4,1.3c0.3,0.4,0.8,0.7,1.4,1c0.4,0.1,1.4,0.4,3.2,0.9c2.6,0.7,4.4,1.3,5.4,1.7c1,0.4,1.8,1.1,2.4,1.9
			c0.6,0.8,0.9,1.9,0.9,3.1s-0.4,2.4-1.1,3.5c-0.7,1.1-1.7,1.9-3.1,2.5s-2.9,0.9-4.6,0.9c-2.8,0-5-0.6-6.4-1.8
			C556.5,861.8,555.6,860,555.1,857.7z"/>
		<path class="st2" d="M587.7,853.4c0-4,1.1-7,3.3-8.9c1.9-1.6,4.1-2.4,6.8-2.4c3,0,5.4,1,7.3,2.9c1.9,2,2.8,4.6,2.8,8.1
			c0,2.8-0.4,5-1.3,6.6s-2.1,2.8-3.6,3.7c-1.6,0.9-3.3,1.3-5.2,1.3c-3,0-5.5-1-7.3-2.9C588.7,859.8,587.7,857,587.7,853.4z
			 M591.5,853.4c0,2.8,0.6,4.8,1.8,6.2c1.2,1.4,2.7,2.1,4.6,2.1c1.8,0,3.3-0.7,4.5-2.1s1.8-3.5,1.8-6.3c0-2.7-0.6-4.7-1.8-6.1
			s-2.7-2.1-4.5-2.1s-3.4,0.7-4.6,2.1C592.1,848.5,591.5,850.6,591.5,853.4z"/>
		<path class="st2" d="M626.5,864.2V861c-1.7,2.4-4,3.7-6.9,3.7c-1.3,0-2.5-0.2-3.6-0.7s-1.9-1.1-2.5-1.8c-0.5-0.7-0.9-1.6-1.1-2.7
			c-0.1-0.7-0.2-1.9-0.2-3.4v-13.4h3.7v12c0,1.9,0.1,3.2,0.2,3.9c0.2,1,0.7,1.7,1.5,2.3c0.7,0.6,1.7,0.8,2.8,0.8s2.1-0.3,3.1-0.8
			c1-0.6,1.6-1.3,2-2.3s0.6-2.4,0.6-4.2v-11.6h3.7v21.6h-3.3V864.2z"/>
		<path class="st2" d="M643.5,860.9l0.5,3.2c-1,0.2-2,0.3-2.8,0.3c-1.3,0-2.4-0.2-3.1-0.6s-1.2-1-1.5-1.7s-0.4-2.1-0.4-4.3v-12.5
			h-2.7v-2.9h2.7V837l3.6-2.2v7.6h3.7v2.9h-3.7V858c0,1,0.1,1.7,0.2,2c0.1,0.3,0.3,0.5,0.6,0.7s0.7,0.3,1.3,0.3
			C642.3,861.1,642.9,861,643.5,860.9z"/>
		<path class="st2" d="M661.2,856.3l3.6,0.5c-0.4,2.5-1.4,4.4-3,5.8s-3.6,2.1-6,2.1c-3,0-5.3-1-7.1-2.9s-2.7-4.7-2.7-8.3
			c0-2.3,0.4-4.4,1.2-6.1c0.8-1.8,2-3.1,3.5-3.9c1.6-0.9,3.3-1.3,5.2-1.3c2.4,0,4.3,0.6,5.8,1.8c1.5,1.2,2.5,2.9,2.9,5.1l-3.6,0.6
			c-0.3-1.5-0.9-2.5-1.8-3.3c-0.9-0.7-1.9-1.1-3.1-1.1c-1.8,0-3.3,0.7-4.5,2s-1.7,3.4-1.7,6.3s0.6,5,1.7,6.3c1.1,1.3,2.6,2,4.4,2
			c1.4,0,2.6-0.4,3.6-1.3C660.4,859.5,661,858.1,661.2,856.3z"/>
		<path class="st2" d="M666.6,853.4c0-4,1.1-7,3.3-8.9c1.9-1.6,4.1-2.4,6.8-2.4c3,0,5.4,1,7.3,2.9c1.9,2,2.8,4.6,2.8,8.1
			c0,2.8-0.4,5-1.3,6.6s-2.1,2.8-3.6,3.7c-1.6,0.9-3.3,1.3-5.2,1.3c-3,0-5.5-1-7.3-2.9C667.6,859.8,666.6,857,666.6,853.4z
			 M670.4,853.4c0,2.8,0.6,4.8,1.8,6.2c1.2,1.4,2.7,2.1,4.6,2.1c1.8,0,3.3-0.7,4.5-2.1s1.8-3.5,1.8-6.3c0-2.7-0.6-4.7-1.8-6.1
			s-2.7-2.1-4.5-2.1s-3.4,0.7-4.6,2.1C671,848.5,670.4,850.6,670.4,853.4z"/>
		<path class="st2" d="M691.2,864.2v-21.6h3.3v3c0.7-1.1,1.6-1.9,2.7-2.6s2.4-1,3.9-1c1.6,0,2.9,0.3,3.9,1s1.7,1.6,2.2,2.8
			c1.7-2.5,3.9-3.8,6.7-3.8c2.1,0,3.8,0.6,5,1.8c1.2,1.2,1.7,3,1.7,5.5v14.9H717v-13.6c0-1.5-0.1-2.5-0.4-3.2
			c-0.2-0.6-0.7-1.2-1.3-1.6s-1.4-0.6-2.2-0.6c-1.5,0-2.8,0.5-3.8,1.5s-1.5,2.6-1.5,4.9v12.6h-3.7v-14.1c0-1.6-0.3-2.9-0.9-3.7
			c-0.6-0.8-1.6-1.2-2.9-1.2c-1,0-2,0.3-2.9,0.8s-1.5,1.3-1.9,2.4c-0.4,1-0.6,2.6-0.6,4.5v11.2L691.2,864.2L691.2,864.2z"/>
		<path class="st2" d="M740.8,857.2l3.8,0.5c-0.6,2.2-1.7,3.9-3.3,5.2c-1.6,1.2-3.7,1.8-6.2,1.8c-3.2,0-5.7-1-7.5-2.9
			c-1.9-2-2.8-4.7-2.8-8.2c0-3.6,0.9-6.5,2.8-8.5c1.9-2,4.3-3,7.3-3c2.9,0,5.3,1,7.1,3s2.8,4.7,2.8,8.3c0,0.2,0,0.5,0,1h-16.3
			c0.1,2.4,0.8,4.2,2,5.5s2.7,1.9,4.5,1.9c1.3,0,2.5-0.4,3.4-1.1C739.5,859.9,740.2,858.8,740.8,857.2z M728.7,851.3h12.1
			c-0.2-1.8-0.6-3.2-1.4-4.1c-1.2-1.4-2.7-2.1-4.5-2.1c-1.7,0-3.1,0.6-4.2,1.7C729.5,847.9,728.9,849.4,728.7,851.3z"/>
	</g>
	<g class="st1">
		<path class="st2" d="M514.3,911.5v-18.8h-3.2v-2.9h3.2v-2.3c0-1.5,0.1-2.5,0.4-3.2c0.4-1,1-1.7,1.9-2.3c0.9-0.6,2.1-0.9,3.7-0.9
			c1,0,2.2,0.1,3.4,0.4l-0.6,3.2c-0.8-0.1-1.5-0.2-2.2-0.2c-1.1,0-1.9,0.2-2.4,0.7s-0.7,1.4-0.7,2.7v2h4.2v2.9h-4.2v18.8
			L514.3,911.5L514.3,911.5z"/>
		<path class="st2" d="M523.6,900.7c0-4,1.1-7,3.3-8.9c1.9-1.6,4.1-2.4,6.8-2.4c3,0,5.4,1,7.3,2.9c1.9,2,2.8,4.6,2.8,8.1
			c0,2.8-0.4,5-1.3,6.6s-2.1,2.8-3.6,3.7c-1.6,0.9-3.3,1.3-5.2,1.3c-3,0-5.5-1-7.3-2.9C524.6,907.1,523.6,904.3,523.6,900.7z
			 M527.4,900.7c0,2.8,0.6,4.8,1.8,6.2c1.2,1.4,2.7,2.1,4.6,2.1c1.8,0,3.3-0.7,4.5-2.1s1.8-3.5,1.8-6.3c0-2.7-0.6-4.7-1.8-6.1
			s-2.7-2.1-4.5-2.1s-3.4,0.7-4.6,2.1C528,895.8,527.4,897.9,527.4,900.7z"/>
		<path class="st2" d="M562.3,903.6l3.6,0.5c-0.4,2.5-1.4,4.4-3,5.8s-3.6,2.1-6,2.1c-3,0-5.3-1-7.1-2.9s-2.7-4.7-2.7-8.3
			c0-2.3,0.4-4.4,1.2-6.1c0.8-1.8,2-3.1,3.5-3.9c1.6-0.9,3.3-1.3,5.2-1.3c2.4,0,4.3,0.6,5.8,1.8c1.5,1.2,2.5,2.9,2.9,5.1l-3.6,0.6
			c-0.3-1.5-0.9-2.5-1.8-3.3c-0.9-0.7-1.9-1.1-3.1-1.1c-1.8,0-3.3,0.7-4.5,2s-1.7,3.4-1.7,6.3s0.6,5,1.7,6.3c1.1,1.3,2.6,2,4.4,2
			c1.4,0,2.6-0.4,3.6-1.3C561.5,906.8,562.1,905.4,562.3,903.6z"/>
		<path class="st2" d="M583.3,911.5v-3.2c-1.7,2.4-4,3.7-6.9,3.7c-1.3,0-2.5-0.2-3.6-0.7s-1.9-1.1-2.5-1.8c-0.5-0.7-0.9-1.6-1.1-2.7
			c-0.1-0.7-0.2-1.9-0.2-3.4V890h3.7v12c0,1.9,0.1,3.2,0.2,3.9c0.2,1,0.7,1.7,1.5,2.3c0.7,0.6,1.7,0.8,2.8,0.8s2.1-0.3,3.1-0.8
			c1-0.6,1.6-1.3,2-2.3s0.6-2.4,0.6-4.2v-11.6h3.7v21.6h-3.3V911.5z"/>
		<path class="st2" d="M590.8,905.1l3.6-0.6c0.2,1.5,0.8,2.6,1.7,3.3s2.2,1.2,3.9,1.2s2.9-0.3,3.8-1s1.2-1.5,1.2-2.4
			c0-0.8-0.4-1.5-1.1-2c-0.5-0.3-1.8-0.7-3.8-1.2c-2.7-0.7-4.6-1.3-5.6-1.8s-1.8-1.2-2.4-2.1c-0.5-0.9-0.8-1.8-0.8-2.9
			c0-1,0.2-1.9,0.7-2.7c0.4-0.8,1-1.5,1.8-2c0.6-0.4,1.3-0.8,2.3-1.1s2-0.4,3.2-0.4c1.7,0,3.2,0.2,4.5,0.7s2.2,1.2,2.8,2
			s1,2,1.3,3.4l-3.6,0.5c-0.2-1.1-0.6-2-1.4-2.6s-1.9-0.9-3.3-0.9c-1.7,0-2.9,0.3-3.6,0.8c-0.7,0.6-1.1,1.2-1.1,2
			c0,0.5,0.1,0.9,0.4,1.3c0.3,0.4,0.8,0.7,1.4,1c0.4,0.1,1.4,0.4,3.2,0.9c2.6,0.7,4.4,1.3,5.4,1.7c1,0.4,1.8,1.1,2.4,1.9
			c0.6,0.8,0.9,1.9,0.9,3.1s-0.4,2.4-1.1,3.5c-0.7,1.1-1.7,1.9-3.1,2.5s-2.9,0.9-4.6,0.9c-2.8,0-5-0.6-6.4-1.8
			C592.2,909.1,591.2,907.4,590.8,905.1z"/>
	</g>
	<path class="st0" d="M836.2,797.4c0-124.5,100.9-225.4,225.4-225.4S1287,672.9,1287,797.4s-100.9,225.4-225.4,225.4
		S836.2,921.9,836.2,797.4z"/>
	<g class="st1">
		<path class="st2" d="M987.8,743.5c-3.8-1.4-6.5-3.3-8.3-5.9c-1.8-2.5-2.7-5.6-2.7-9.2c0-5.4,1.9-9.9,5.8-13.5
			c3.9-3.7,9-5.5,15.4-5.5c6.4,0,11.6,1.9,15.5,5.6c3.9,3.7,5.9,8.3,5.9,13.7c0,3.4-0.9,6.4-2.7,8.9c-1.8,2.5-4.5,4.5-8.2,5.9
			c4.5,1.5,8,3.9,10.3,7.1c2.4,3.3,3.5,7.2,3.5,11.8c0,6.3-2.2,11.6-6.7,15.9c-4.5,4.3-10.3,6.4-17.6,6.4c-7.3,0-13.1-2.2-17.6-6.5
			s-6.7-9.7-6.7-16.1c0-4.8,1.2-8.8,3.6-12C979.9,746.9,983.3,744.7,987.8,743.5z M983.1,762.2c0,2.6,0.6,5.1,1.8,7.5s3,4.3,5.5,5.6
			c2.4,1.3,5,2,7.8,2c4.3,0,7.9-1.4,10.7-4.2c2.8-2.8,4.2-6.3,4.2-10.6c0-4.4-1.5-8-4.3-10.8c-2.9-2.8-6.5-4.3-10.9-4.3
			c-4.3,0-7.8,1.4-10.6,4.2C984.5,754.5,983.1,758,983.1,762.2z M986,728.2c0,3.5,1.1,6.3,3.4,8.5c2.2,2.2,5.2,3.3,8.7,3.3
			s6.3-1.1,8.6-3.3c2.2-2.2,3.3-4.9,3.3-8.1c0-3.3-1.1-6.1-3.4-8.4s-5.2-3.4-8.6-3.4c-3.5,0-6.3,1.1-8.6,3.3
			C987.1,722.5,986,725.1,986,728.2z"/>
		<path class="st2" d="M1031.2,764l9-1.2c1,5.1,2.8,8.8,5.3,11.1s5.5,3.4,9.1,3.4c4.3,0,7.9-1.5,10.8-4.4c2.9-2.9,4.4-6.6,4.4-11
			c0-4.2-1.4-7.6-4.1-10.3s-6.2-4-10.4-4c-1.7,0-3.8,0.3-6.4,1l1-7.9c0.6,0.1,1.1,0.1,1.5,0.1c3.9,0,7.3-1,10.4-3
			c3.1-2,4.6-5.1,4.6-9.3c0-3.3-1.1-6.1-3.4-8.2c-2.2-2.2-5.1-3.3-8.7-3.3c-3.5,0-6.5,1.1-8.8,3.3s-3.9,5.5-4.5,10l-9-1.6
			c1.1-6.1,3.6-10.8,7.5-14.1c3.9-3.3,8.8-5,14.6-5c4,0,7.7,0.9,11.1,2.6c3.4,1.7,6,4.1,7.8,7.1s2.7,6.2,2.7,9.5
			c0,3.2-0.9,6.1-2.6,8.7c-1.7,2.6-4.2,4.7-7.6,6.2c4.4,1,7.7,3.1,10.2,6.3c2.4,3.2,3.6,7.1,3.6,11.9c0,6.4-2.3,11.9-7,16.4
			s-10.6,6.7-17.8,6.7c-6.5,0-11.8-1.9-16.1-5.8C1034.2,775.2,1031.8,770.2,1031.2,764z"/>
	</g>
	<g class="st1">
		<path class="st2" d="M1081.3,727.5c0-5.3,1.3-9.7,4-13.4c2.6-3.7,6.5-5.5,11.5-5.5c4.6,0,8.5,1.7,11.5,5s4.5,8.2,4.5,14.6
			c0,6.2-1.5,11-4.6,14.4c-3.1,3.4-6.8,5.1-11.3,5.1s-8.2-1.7-11.1-5C1082.8,739.2,1081.3,734.2,1081.3,727.5z M1097.1,714.8
			c-2.2,0-4.1,1-5.6,2.9s-2.2,5.5-2.2,10.7c0,4.7,0.8,8.1,2.3,10s3.4,2.9,5.6,2.9c2.3,0,4.2-1,5.7-2.9s2.2-5.5,2.2-10.7
			c0-4.8-0.8-8.1-2.3-10C1101.2,715.7,1099.3,714.8,1097.1,714.8z M1097.1,786.2l40.3-77.7h7.3l-40.2,77.7H1097.1z M1129,766.2
			c0-5.3,1.3-9.8,4-13.4c2.6-3.7,6.5-5.5,11.6-5.5c4.6,0,8.5,1.7,11.5,5s4.5,8.2,4.5,14.6c0,6.2-1.5,11-4.6,14.4
			c-3.1,3.4-6.9,5.1-11.4,5.1s-8.2-1.7-11.1-5C1130.5,777.9,1129,772.9,1129,766.2z M1144.8,753.5c-2.3,0-4.2,1-5.7,2.9
			s-2.2,5.5-2.2,10.7c0,4.7,0.8,8,2.3,10c1.5,1.9,3.4,2.9,5.6,2.9c2.3,0,4.2-1,5.7-2.9s2.2-5.5,2.2-10.7c0-4.8-0.8-8.1-2.3-10
			C1148.9,754.4,1147,753.5,1144.8,753.5z"/>
	</g>
	<g class="st1">
		<path class="st2" d="M976.8,864.2v-29.9h4v29.9H976.8z"/>
		<path class="st2" d="M987.2,864.2v-21.6h3.3v3.1c1.6-2.4,3.9-3.6,6.9-3.6c1.3,0,2.5,0.2,3.6,0.7s1.9,1.1,2.5,1.8
			c0.5,0.8,0.9,1.7,1.1,2.7c0.1,0.7,0.2,1.9,0.2,3.6v13.3h-3.7V851c0-1.5-0.1-2.6-0.4-3.4c-0.3-0.7-0.8-1.3-1.5-1.8
			c-0.7-0.4-1.6-0.7-2.6-0.7c-1.6,0-2.9,0.5-4,1.5s-1.7,2.9-1.7,5.6V864h-3.7L987.2,864.2L987.2,864.2z"/>
		<path class="st2" d="M1018.4,860.9l0.5,3.2c-1,0.2-2,0.3-2.8,0.3c-1.3,0-2.4-0.2-3.1-0.6s-1.2-1-1.5-1.7s-0.4-2.1-0.4-4.3v-12.5
			h-2.7v-2.9h2.7V837l3.6-2.2v7.6h3.7v2.9h-3.7V858c0,1,0.1,1.7,0.2,2s0.3,0.5,0.6,0.7c0.3,0.2,0.7,0.3,1.3,0.3
			C1017.2,861.1,1017.8,861,1018.4,860.9z"/>
		<path class="st2" d="M1036.8,857.2l3.8,0.5c-0.6,2.2-1.7,3.9-3.3,5.2c-1.6,1.2-3.7,1.8-6.2,1.8c-3.2,0-5.7-1-7.5-2.9
			c-1.9-2-2.8-4.7-2.8-8.2c0-3.6,0.9-6.5,2.8-8.5c1.9-2,4.3-3,7.3-3c2.9,0,5.3,1,7.1,3c1.8,2,2.8,4.7,2.8,8.3c0,0.2,0,0.5,0,1h-16.1
			c0.1,2.4,0.8,4.2,2,5.5s2.7,1.9,4.5,1.9c1.3,0,2.5-0.4,3.4-1.1C1035.5,859.9,1036.3,858.8,1036.8,857.2z M1024.8,851.3h12.1
			c-0.2-1.8-0.6-3.2-1.4-4.1c-1.2-1.4-2.7-2.1-4.5-2.1c-1.7,0-3.1,0.6-4.2,1.7C1025.6,847.9,1024.9,849.4,1024.8,851.3z"/>
		<path class="st2" d="M1044.6,866l3.6,0.5c0.1,1.1,0.6,1.9,1.2,2.4c0.9,0.7,2.2,1,3.7,1c1.7,0,3-0.3,3.9-1c0.9-0.7,1.5-1.6,1.9-2.9
			c0.2-0.7,0.3-2.3,0.3-4.7c-1.6,1.9-3.6,2.8-6,2.8c-3,0-5.3-1.1-6.9-3.2c-1.6-2.1-2.4-4.7-2.4-7.7c0-2.1,0.4-4,1.1-5.7
			s1.8-3.1,3.3-4c1.4-1,3.1-1.4,5-1.4c2.6,0,4.7,1,6.3,3.1v-2.6h3.4v18.7c0,3.4-0.3,5.8-1,7.2c-0.7,1.4-1.8,2.5-3.3,3.3
			s-3.3,1.2-5.5,1.2c-2.6,0-4.7-0.6-6.3-1.7C1045.3,870.1,1044.5,868.3,1044.6,866z M1047.6,853c0,2.8,0.6,4.9,1.7,6.2
			c1.1,1.3,2.5,2,4.2,2s3.1-0.6,4.2-1.9c1.1-1.3,1.7-3.3,1.7-6.1c0-2.7-0.6-4.6-1.8-6c-1.2-1.3-2.6-2-4.2-2c-1.6,0-3,0.7-4.2,2
			S1047.6,850.4,1047.6,853z"/>
		<path class="st2" d="M1068.4,864.2v-21.6h3.3v3.3c0.8-1.5,1.6-2.5,2.3-3s1.5-0.7,2.4-0.7c1.2,0,2.5,0.4,3.8,1.2l-1.3,3.4
			c-0.9-0.5-1.8-0.8-2.7-0.8c-0.8,0-1.5,0.2-2.2,0.7c-0.6,0.5-1.1,1.2-1.4,2c-0.4,1.3-0.6,2.7-0.6,4.3v11.3h-3.6L1068.4,864.2
			L1068.4,864.2z"/>
		<path class="st2" d="M1096.5,861.5c-1.4,1.2-2.7,2-3.9,2.4c-1.3,0.5-2.6,0.7-4,0.7c-2.4,0-4.2-0.6-5.5-1.7
			c-1.3-1.2-1.9-2.6-1.9-4.5c0-1.1,0.2-2,0.7-2.9s1.1-1.6,1.9-2.1s1.7-0.9,2.6-1.2c0.7-0.2,1.8-0.4,3.3-0.6c3-0.4,5.1-0.8,6.5-1.3
			c0-0.5,0-0.8,0-1c0-1.5-0.3-2.5-1-3.2c-0.9-0.8-2.3-1.2-4.2-1.2c-1.7,0-3,0.3-3.8,0.9s-1.4,1.7-1.8,3.2l-3.6-0.5
			c0.3-1.5,0.9-2.8,1.6-3.7c0.7-0.9,1.8-1.7,3.2-2.2s3.1-0.8,4.9-0.8s3.3,0.2,4.5,0.7c1.2,0.4,2,1,2.5,1.6c0.5,0.7,0.9,1.5,1.1,2.5
			c0.1,0.6,0.2,1.8,0.2,3.4v4.9c0,3.4,0.1,5.6,0.2,6.5c0.2,0.9,0.5,1.8,0.9,2.6h-3.8C1096.8,863.4,1096.6,862.6,1096.5,861.5z
			 M1096.2,853.3c-1.3,0.5-3.3,1-6,1.4c-1.5,0.2-2.6,0.5-3.2,0.7c-0.6,0.3-1.1,0.7-1.4,1.2s-0.5,1.1-0.5,1.7c0,1,0.4,1.8,1.1,2.4
			c0.7,0.7,1.8,1,3.3,1c1.4,0,2.7-0.3,3.8-0.9s1.9-1.5,2.4-2.5c0.4-0.8,0.6-2.1,0.6-3.7v-1.3L1096.2,853.3L1096.2,853.3z"/>
		<path class="st2" d="M1113.6,860.9l0.5,3.2c-1,0.2-2,0.3-2.8,0.3c-1.3,0-2.4-0.2-3.1-0.6s-1.2-1-1.5-1.7s-0.4-2.1-0.4-4.3v-12.5
			h-2.7v-2.9h2.7V837l3.6-2.2v7.6h3.7v2.9h-3.7V858c0,1,0.1,1.7,0.2,2c0.1,0.3,0.3,0.5,0.6,0.7s0.7,0.3,1.3,0.3
			C1112.4,861.1,1112.9,861,1113.6,860.9z"/>
		<path class="st2" d="M1132,857.2l3.8,0.5c-0.6,2.2-1.7,3.9-3.3,5.2c-1.6,1.2-3.7,1.8-6.2,1.8c-3.2,0-5.7-1-7.5-2.9
			c-1.9-2-2.8-4.7-2.8-8.2c0-3.6,0.9-6.5,2.8-8.5c1.9-2,4.3-3,7.3-3c2.9,0,5.3,1,7.1,3c1.8,2,2.8,4.7,2.8,8.3c0,0.2,0,0.5,0,1h-16.1
			c0.1,2.4,0.8,4.2,2,5.5s2.7,1.9,4.5,1.9c1.3,0,2.5-0.4,3.4-1.1C1130.7,859.9,1131.4,858.8,1132,857.2z M1119.9,851.3h12.1
			c-0.2-1.8-0.6-3.2-1.4-4.1c-1.2-1.4-2.7-2.1-4.5-2.1c-1.7,0-3.1,0.6-4.2,1.7C1120.7,847.9,1120.1,849.4,1119.9,851.3z"/>
		<path class="st2" d="M1154.4,864.2v-2.7c-1.4,2.1-3.4,3.2-6.1,3.2c-1.7,0-3.3-0.5-4.8-1.4s-2.6-2.3-3.4-4s-1.2-3.7-1.2-5.9
			c0-2.2,0.4-4.1,1.1-5.9s1.8-3.1,3.2-4s3-1.4,4.8-1.4c1.3,0,2.5,0.3,3.5,0.8c1,0.6,1.8,1.3,2.5,2.2v-10.7h3.6v29.9L1154.4,864.2
			L1154.4,864.2z M1142.8,853.4c0,2.8,0.6,4.8,1.8,6.2c1.2,1.4,2.5,2.1,4.1,2.1c1.6,0,3-0.7,4.1-2c1.1-1.3,1.7-3.3,1.7-6
			c0-3-0.6-5.1-1.7-6.5c-1.1-1.4-2.5-2.1-4.2-2.1c-1.6,0-3,0.7-4.1,2S1142.8,850.5,1142.8,853.4z"/>
	</g>
	<g class="st1">
		<path class="st2" d="M971.9,900.7c0-4,1.1-7,3.3-8.9c1.9-1.6,4.1-2.4,6.8-2.4c3,0,5.4,1,7.3,2.9c1.9,2,2.8,4.6,2.8,8.1
			c0,2.8-0.4,5-1.3,6.6s-2.1,2.8-3.6,3.7c-1.6,0.9-3.3,1.3-5.2,1.3c-3,0-5.5-1-7.3-2.9C972.9,907.1,971.9,904.3,971.9,900.7z
			 M975.7,900.7c0,2.8,0.6,4.8,1.8,6.2c1.2,1.4,2.7,2.1,4.6,2.1c1.8,0,3.3-0.7,4.5-2.1s1.8-3.5,1.8-6.3c0-2.7-0.6-4.7-1.8-6.1
			s-2.7-2.1-4.5-2.1s-3.4,0.7-4.6,2.1C976.3,895.8,975.7,897.9,975.7,900.7z"/>
		<path class="st2" d="M996.5,919.8v-29.9h3.3v2.8c0.8-1.1,1.7-1.9,2.7-2.5c1-0.5,2.2-0.8,3.6-0.8c1.8,0,3.5,0.5,4.9,1.4
			s2.5,2.3,3.2,4s1.1,3.6,1.1,5.7c0,2.2-0.4,4.2-1.2,6s-2,3.1-3.5,4.1c-1.5,0.9-3.1,1.4-4.8,1.4c-1.2,0-2.3-0.3-3.3-0.8
			s-1.8-1.2-2.4-2v10.5h-3.6L996.5,919.8L996.5,919.8z M999.8,900.8c0,2.8,0.6,4.8,1.7,6.2c1.1,1.3,2.5,2,4.1,2s3-0.7,4.2-2.1
			s1.7-3.5,1.7-6.4c0-2.8-0.6-4.8-1.7-6.2c-1.1-1.4-2.5-2.1-4.1-2.1s-2.9,0.7-4.1,2.2S999.8,898,999.8,900.8z"/>
		<path class="st2" d="M1034.5,904.5l3.8,0.5c-0.6,2.2-1.7,3.9-3.3,5.2c-1.6,1.2-3.7,1.8-6.2,1.8c-3.2,0-5.7-1-7.5-2.9
			c-1.9-2-2.8-4.7-2.8-8.2c0-3.6,0.9-6.5,2.8-8.5s4.3-3,7.3-3c2.9,0,5.3,1,7.1,3c1.8,2,2.8,4.7,2.8,8.3c0,0.2,0,0.5,0,1h-16.1
			c0.1,2.4,0.8,4.2,2,5.5c1.2,1.3,2.7,1.9,4.5,1.9c1.3,0,2.5-0.4,3.4-1.1C1033.2,907.2,1034,906.1,1034.5,904.5z M1022.5,898.6h12.1
			c-0.2-1.8-0.6-3.2-1.4-4.1c-1.2-1.4-2.7-2.1-4.5-2.1c-1.7,0-3.1,0.6-4.2,1.7C1023.3,895.2,1022.6,896.7,1022.5,898.6z"/>
		<path class="st2" d="M1042.9,911.5v-21.6h3.3v3.3c0.8-1.5,1.6-2.5,2.3-3s1.5-0.7,2.4-0.7c1.2,0,2.5,0.4,3.8,1.2l-1.3,3.4
			c-0.9-0.5-1.8-0.8-2.7-0.8c-0.8,0-1.5,0.2-2.2,0.7c-0.6,0.5-1.1,1.2-1.4,2c-0.4,1.3-0.6,2.7-0.6,4.3v11.3h-3.6L1042.9,911.5
			L1042.9,911.5z"/>
		<path class="st2" d="M1071,908.8c-1.4,1.2-2.7,2-3.9,2.4c-1.3,0.5-2.6,0.7-4,0.7c-2.4,0-4.2-0.6-5.5-1.7c-1.3-1.2-1.9-2.6-1.9-4.5
			c0-1.1,0.2-2,0.7-2.9s1.1-1.6,1.9-2.1s1.7-0.9,2.6-1.2c0.7-0.2,1.8-0.4,3.3-0.6c3-0.4,5.1-0.8,6.5-1.3c0-0.5,0-0.8,0-1
			c0-1.5-0.3-2.5-1-3.2c-0.9-0.8-2.3-1.2-4.2-1.2c-1.7,0-3,0.3-3.8,0.9s-1.4,1.7-1.8,3.2l-3.6-0.5c0.3-1.5,0.9-2.8,1.6-3.7
			c0.7-0.9,1.8-1.7,3.2-2.2s3.1-0.8,4.9-0.8s3.3,0.2,4.5,0.7c1.2,0.4,2,1,2.5,1.6c0.5,0.7,0.9,1.5,1.1,2.5c0.1,0.6,0.2,1.8,0.2,3.4
			v4.9c0,3.4,0.1,5.6,0.2,6.5c0.2,0.9,0.5,1.8,0.9,2.6h-3.8C1071.3,910.8,1071.1,909.9,1071,908.8z M1070.7,900.7
			c-1.3,0.5-3.3,1-6,1.4c-1.5,0.2-2.6,0.5-3.2,0.7c-0.6,0.3-1.1,0.7-1.4,1.2s-0.5,1.1-0.5,1.7c0,1,0.4,1.8,1.1,2.4
			c0.7,0.7,1.8,1,3.3,1c1.4,0,2.7-0.3,3.8-0.9s1.9-1.5,2.4-2.5c0.4-0.8,0.6-2.1,0.6-3.7v-1.3L1070.7,900.7L1070.7,900.7z"/>
		<path class="st2" d="M1088.1,908.2l0.5,3.2c-1,0.2-2,0.3-2.8,0.3c-1.3,0-2.4-0.2-3.1-0.6s-1.2-1-1.5-1.7s-0.4-2.1-0.4-4.3v-12.5
			h-2.7v-2.9h2.7v-5.4l3.6-2.2v7.6h3.7v2.9h-3.7v12.7c0,1,0.1,1.7,0.2,2c0.1,0.3,0.3,0.5,0.6,0.7s0.7,0.3,1.3,0.3
			C1086.9,908.4,1087.4,908.3,1088.1,908.2z"/>
		<path class="st2" d="M1091.7,885.9v-4.2h3.7v4.2H1091.7z M1091.7,911.5v-21.6h3.7v21.6H1091.7z"/>
		<path class="st2" d="M1099.6,900.7c0-4,1.1-7,3.3-8.9c1.9-1.6,4.1-2.4,6.8-2.4c3,0,5.4,1,7.3,2.9c1.9,2,2.8,4.6,2.8,8.1
			c0,2.8-0.4,5-1.3,6.6c-0.9,1.6-2.1,2.8-3.6,3.7c-1.6,0.9-3.3,1.3-5.2,1.3c-3,0-5.5-1-7.3-2.9
			C1100.5,907.1,1099.6,904.3,1099.6,900.7z M1103.3,900.7c0,2.8,0.6,4.8,1.8,6.2c1.2,1.4,2.7,2.1,4.6,2.1c1.8,0,3.3-0.7,4.5-2.1
			s1.8-3.5,1.8-6.3c0-2.7-0.6-4.7-1.8-6.1c-1.2-1.4-2.7-2.1-4.5-2.1s-3.4,0.7-4.6,2.1C1103.9,895.8,1103.3,897.9,1103.3,900.7z"/>
		<path class="st2" d="M1124.1,911.5v-21.6h3.3v3.1c1.6-2.4,3.9-3.6,6.9-3.6c1.3,0,2.5,0.2,3.6,0.7c1.1,0.5,1.9,1.1,2.5,1.8
			c0.5,0.8,0.9,1.7,1.1,2.7c0.1,0.7,0.2,1.9,0.2,3.6v13.3h-3.7v-13.2c0-1.5-0.1-2.6-0.4-3.4c-0.3-0.7-0.8-1.3-1.5-1.8
			c-0.7-0.4-1.6-0.7-2.6-0.7c-1.6,0-2.9,0.5-4,1.5c-1.1,1-1.7,2.9-1.7,5.6v11.8h-3.7V911.5L1124.1,911.5z"/>
		<path class="st2" d="M1145.9,905.1l3.6-0.6c0.2,1.5,0.8,2.6,1.7,3.3s2.2,1.2,3.9,1.2s2.9-0.3,3.8-1c0.9-0.7,1.2-1.5,1.2-2.4
			c0-0.8-0.4-1.5-1.1-2c-0.5-0.3-1.8-0.7-3.8-1.2c-2.7-0.7-4.6-1.3-5.6-1.8s-1.8-1.2-2.4-2.1c-0.5-0.9-0.8-1.8-0.8-2.9
			c0-1,0.2-1.9,0.7-2.7c0.4-0.8,1-1.5,1.8-2c0.6-0.4,1.3-0.8,2.3-1.1s2-0.4,3.2-0.4c1.7,0,3.2,0.2,4.5,0.7s2.2,1.2,2.8,2
			c0.6,0.8,1,2,1.3,3.4l-3.6,0.5c-0.2-1.1-0.6-2-1.4-2.6s-1.9-0.9-3.3-0.9c-1.7,0-2.9,0.3-3.6,0.8c-0.7,0.6-1.1,1.2-1.1,2
			c0,0.5,0.1,0.9,0.4,1.3s0.8,0.7,1.4,1c0.4,0.1,1.4,0.4,3.2,0.9c2.6,0.7,4.4,1.3,5.4,1.7c1,0.4,1.8,1.1,2.4,1.9
			c0.6,0.8,0.9,1.9,0.9,3.1s-0.4,2.4-1.1,3.5s-1.7,1.9-3.1,2.5c-1.4,0.6-2.9,0.9-4.6,0.9c-2.8,0-5-0.6-6.4-1.8
			C1147.2,909.1,1146.3,907.4,1145.9,905.1z"/>
	</g>
</g>
</svg>
