<?xml version="1.0" encoding="UTF-8"?>
<svg width="35px" height="36px" viewBox="0 0 35 36" version="1.1" xmlns="http://www.w3.org/2000/svg" xmlns:xlink="http://www.w3.org/1999/xlink">
    <!-- Generator: Sketch 54.1 (76490) - https://sketchapp.com -->
    <title>icon</title>
    <desc>Created with Sketch.</desc>
    <g id="Page-1" stroke="none" stroke-width="1" fill="none" fill-rule="evenodd">
        <g id="icon" fill="#FFFFFF" fill-rule="nonzero">
            <path d="M27.4663,21.4082 C27.2993,21.2412 27.0293,21.2412 26.8623,21.4082 C26.6953,21.5752 26.6953,21.8452 26.8623,22.0122 L28.7383,23.8892 C28.8213,23.9722 28.9313,24.0142 29.0403,24.0142 C29.1503,24.0142 29.2593,23.9722 29.3433,23.8892 L31.2203,22.0122 C31.3873,21.8452 31.3873,21.5752 31.2203,21.4082 C31.0533,21.2412 30.7823,21.2412 30.6153,21.4082 L29.4683,22.5552 L29.4683,18.1192 C29.4683,17.8832 29.2773,17.6912 29.0403,17.6912 L17.5203,17.6912 L17.5203,14.8482 C17.5203,14.6112 17.3283,14.4202 17.0923,14.4202 C16.8573,14.4202 16.6653,14.6112 16.6653,14.8482 L16.6653,17.6912 L5.1443,17.6912 C4.9083,17.6912 4.7173,17.8832 4.7173,18.1192 L4.7173,22.5552 L3.5703,21.4082 C3.4033,21.2412 3.1323,21.2412 2.9653,21.4082 C2.7983,21.5752 2.7983,21.8452 2.9653,22.0122 L4.8423,23.8892 C4.9263,23.9722 5.0343,24.0142 5.1443,24.0142 C5.2533,24.0142 5.3623,23.9722 5.4463,23.8892 L7.3233,22.0122 C7.4903,21.8452 7.4903,21.5752 7.3233,21.4082 C7.1563,21.2412 6.8863,21.2412 6.7193,21.4082 L5.5713,22.5552 L5.5713,18.5462 L16.6653,18.5462 L16.6653,22.5552 L15.5183,21.4082 C15.3513,21.2412 15.0803,21.2412 14.9133,21.4082 C14.7463,21.5752 14.7463,21.8452 14.9133,22.0122 L16.7903,23.8892 C16.8733,23.9722 16.9833,24.0142 17.0923,24.0142 C17.2013,24.0142 17.3113,23.9722 17.3953,23.8892 L19.2723,22.0122 C19.4393,21.8452 19.4393,21.5752 19.2723,21.4082 C19.1053,21.2412 18.8343,21.2412 18.6673,21.4082 L17.5203,22.5552 L17.5203,18.5462 L28.6133,18.5462 L28.6133,22.5552 L27.4663,21.4082 Z" id="Fill-1"></path>
            <path d="M0.855,30.6848 C0.855,28.2258 2.856,26.2248 5.315,26.2248 C7.774,26.2248 9.775,28.2258 9.775,30.6848 C9.775,31.7768 9.379,32.7768 8.726,33.5528 C8.502,32.6418 7.926,31.8548 7.119,31.3738 C7.558,30.9268 7.814,30.3198 7.814,29.6698 C7.814,28.3258 6.72,27.2318 5.376,27.2318 C4.032,27.2318 2.939,28.3258 2.939,29.6698 C2.939,30.2938 3.177,30.8828 3.588,31.3258 C2.737,31.8018 2.132,32.6078 1.904,33.5528 C1.251,32.7768 0.855,31.7768 0.855,30.6848 M2.664,34.2628 C2.717,33.1388 3.454,32.1748 4.541,31.8448 C4.706,31.7948 4.824,31.6508 4.841,31.4798 C4.859,31.3078 4.772,31.1428 4.621,31.0608 C4.111,30.7828 3.793,30.2498 3.793,29.6698 C3.793,28.7968 4.503,28.0868 5.376,28.0868 C6.249,28.0868 6.959,28.7968 6.959,29.6698 C6.959,30.2668 6.626,30.8078 6.092,31.0798 C5.938,31.1578 5.847,31.3208 5.86,31.4928 C5.873,31.6648 5.988,31.8118 6.152,31.8658 C7.202,32.2138 7.914,33.1678 7.966,34.2628 C7.224,34.8148 6.309,35.1448 5.315,35.1448 C4.322,35.1448 3.406,34.8148 2.664,34.2628 M10.63,30.6848 C10.63,27.7538 8.246,25.3698 5.315,25.3698 C2.384,25.3698 0,27.7538 0,30.6848 C0,33.6158 2.384,35.9998 5.315,35.9998 C8.246,35.9998 10.63,33.6158 10.63,30.6848" id="Fill-3"></path>
            <path d="M20.5044,33.5527 C20.2804,32.6417 19.7044,31.8547 18.8974,31.3737 C19.3364,30.9257 19.5914,30.3197 19.5914,29.6697 C19.5914,28.3257 18.4984,27.2317 17.1534,27.2317 C15.8104,27.2317 14.7164,28.3257 14.7164,29.6697 C14.7164,30.2937 14.9544,30.8827 15.3654,31.3257 C14.5154,31.8017 13.9104,32.6077 13.6814,33.5527 C13.0274,32.7767 12.6324,31.7767 12.6324,30.6847 C12.6324,28.2257 14.6334,26.2247 17.0924,26.2247 C19.5524,26.2247 21.5534,28.2257 21.5534,30.6847 C21.5534,31.7767 21.1574,32.7767 20.5044,33.5527 M14.4414,34.2627 C14.4944,33.1387 15.2314,32.1757 16.3184,31.8447 C16.4834,31.7947 16.6024,31.6507 16.6194,31.4797 C16.6374,31.3077 16.5494,31.1427 16.3984,31.0607 C15.8884,30.7827 15.5704,30.2497 15.5704,29.6697 C15.5704,28.7967 16.2814,28.0867 17.1534,28.0867 C18.0264,28.0867 18.7364,28.7967 18.7364,29.6697 C18.7364,30.2667 18.4044,30.8077 17.8694,31.0797 C17.7164,31.1577 17.6244,31.3207 17.6374,31.4927 C17.6504,31.6647 17.7664,31.8117 17.9294,31.8657 C18.9804,32.2147 19.6914,33.1687 19.7444,34.2627 C19.0024,34.8147 18.0864,35.1457 17.0924,35.1457 C16.0994,35.1457 15.1834,34.8147 14.4414,34.2627 M17.0924,25.3697 C14.1614,25.3697 11.7774,27.7537 11.7774,30.6847 C11.7774,33.6157 14.1614,35.9997 17.0924,35.9997 C20.0234,35.9997 22.4074,33.6157 22.4074,30.6847 C22.4074,27.7537 20.0234,25.3697 17.0924,25.3697" id="Fill-5"></path>
            <path d="M12.1431,7.6189 C12.1431,4.8899 14.3641,2.6699 17.0921,2.6699 C19.8221,2.6699 22.0421,4.8899 22.0421,7.6189 C22.0421,8.8619 21.5791,9.9959 20.8201,10.8659 C20.5871,9.8229 19.9351,8.9209 19.0071,8.3859 C19.5071,7.8979 19.7991,7.2249 19.7991,6.5019 C19.7991,5.0469 18.6151,3.8629 17.1601,3.8629 C15.7051,3.8629 14.5211,5.0469 14.5211,6.5019 C14.5211,7.1969 14.7931,7.8509 15.2621,8.3359 C14.2871,8.8619 13.6021,9.7849 13.3651,10.8649 C12.6071,9.9949 12.1431,8.8609 12.1431,7.6189 M14.1311,11.5759 C14.1821,10.3109 15.0071,9.2249 16.2281,8.8539 C16.3931,8.8039 16.5121,8.6599 16.5291,8.4889 C16.5461,8.3169 16.4591,8.1519 16.3081,8.0699 C15.7331,7.7569 15.3751,7.1559 15.3751,6.5019 C15.3751,5.5179 16.1761,4.7179 17.1601,4.7179 C18.1441,4.7179 18.9441,5.5179 18.9441,6.5019 C18.9441,7.1749 18.5701,7.7849 17.9671,8.0919 C17.8131,8.1699 17.7221,8.3329 17.7351,8.5039 C17.7471,8.6759 17.8631,8.8239 18.0271,8.8779 C19.2061,9.2689 20.0031,10.3439 20.0541,11.5759 C19.2271,12.1959 18.2041,12.5689 17.0921,12.5689 C15.9821,12.5689 14.9581,12.1959 14.1311,11.5759 M22.8971,7.6189 C22.8971,4.4189 20.2921,1.8149 17.0921,1.8149 C13.8921,1.8149 11.2891,4.4189 11.2891,7.6189 C11.2891,10.8199 13.8921,13.4239 17.0921,13.4239 C20.2921,13.4239 22.8971,10.8199 22.8971,7.6189" id="Fill-7"></path>
            <path d="M32.2817,33.5527 C32.0577,32.6417 31.4817,31.8547 30.6747,31.3737 C31.1137,30.9267 31.3687,30.3197 31.3687,29.6697 C31.3687,28.3257 30.2757,27.2317 28.9307,27.2317 C27.5877,27.2317 26.4937,28.3257 26.4937,29.6697 C26.4937,30.2937 26.7317,30.8827 27.1427,31.3257 C26.2927,31.8017 25.6877,32.6077 25.4597,33.5527 C24.8047,32.7767 24.4097,31.7767 24.4097,30.6847 C24.4097,28.2257 26.4107,26.2247 28.8707,26.2247 C31.3297,26.2247 33.3307,28.2257 33.3307,30.6847 C33.3307,31.7767 32.9347,32.7767 32.2817,33.5527 M26.2197,34.2627 C26.2717,33.1377 27.0097,32.1757 28.0957,31.8447 C28.2607,31.7947 28.3797,31.6507 28.3967,31.4797 C28.4147,31.3087 28.3277,31.1427 28.1767,31.0607 C27.6657,30.7827 27.3487,30.2497 27.3487,29.6697 C27.3487,28.7967 28.0587,28.0867 28.9307,28.0867 C29.8037,28.0867 30.5137,28.7967 30.5137,29.6697 C30.5137,30.2667 30.1817,30.8077 29.6477,31.0797 C29.4937,31.1577 29.4017,31.3207 29.4157,31.4927 C29.4277,31.6647 29.5437,31.8117 29.7067,31.8657 C30.7577,32.2137 31.4697,33.1677 31.5217,34.2627 C30.7797,34.8147 29.8637,35.1457 28.8707,35.1457 C27.8767,35.1457 26.9617,34.8147 26.2197,34.2627 M28.8707,25.3697 C25.9387,25.3697 23.5547,27.7537 23.5547,30.6847 C23.5547,33.6157 25.9387,35.9997 28.8707,35.9997 C31.8017,35.9997 34.1847,33.6157 34.1847,30.6847 C34.1847,27.7537 31.8017,25.3697 28.8707,25.3697" id="Fill-9"></path>
            <path d="M26.0845,1.8718 L23.5615,3.3288 C23.3565,3.4468 23.2865,3.7078 23.4045,3.9128 C23.4835,4.0498 23.6275,4.1258 23.7745,4.1258 C23.8485,4.1258 23.9215,4.1078 23.9885,4.0688 L26.5125,2.6118 C26.7165,2.4938 26.7865,2.2328 26.6685,2.0278 C26.5505,1.8238 26.2885,1.7538 26.0845,1.8718" id="Fill-11"></path>
            <path d="M28.1743,7.5635 C28.1743,7.3275 27.9833,7.1365 27.7463,7.1365 L24.8323,7.1365 C24.5963,7.1365 24.4053,7.3275 24.4053,7.5635 C24.4053,7.7995 24.5963,7.9905 24.8323,7.9905 L27.7463,7.9905 C27.9833,7.9905 28.1743,7.7995 28.1743,7.5635" id="Fill-13"></path>
            <path d="M24.0308,11.0688 C23.8258,10.9508 23.5648,11.0198 23.4468,11.2248 C23.3288,11.4298 23.3988,11.6908 23.6028,11.8088 L26.1268,13.2668 C26.1938,13.3048 26.2668,13.3238 26.3398,13.3238 C26.4878,13.3238 26.6318,13.2468 26.7108,13.1098 C26.8288,12.9048 26.7588,12.6438 26.5528,12.5258 L24.0308,11.0688 Z" id="Fill-15"></path>
            <path d="M10.1968,11.1406 L7.6738,12.5976 C7.4688,12.7156 7.3988,12.9766 7.5168,13.1816 C7.5958,13.3186 7.7398,13.3956 7.8868,13.3956 C7.9608,13.3956 8.0338,13.3766 8.1008,13.3386 L10.6248,11.8806 C10.8288,11.7626 10.8988,11.5016 10.7808,11.2966 C10.6618,11.0916 10.4008,11.0226 10.1968,11.1406" id="Fill-17"></path>
            <path d="M6.0112,7.6465 C6.0112,7.8825 6.2022,8.0735 6.4392,8.0735 L9.3532,8.0735 C9.5882,8.0735 9.7802,7.8825 9.7802,7.6465 C9.7802,7.4105 9.5882,7.2195 9.3532,7.2195 L6.4392,7.2195 C6.2022,7.2195 6.0112,7.4105 6.0112,7.6465" id="Fill-19"></path>
            <path d="M10.5825,3.4004 L8.0595,1.9434 C7.8545,1.8254 7.5935,1.8954 7.4755,2.1004 C7.3565,2.3044 7.4275,2.5664 7.6315,2.6834 L10.1545,4.1404 C10.2225,4.1794 10.2955,4.1984 10.3685,4.1984 C10.5165,4.1984 10.6595,4.1214 10.7385,3.9844 C10.8565,3.7794 10.7865,3.5184 10.5825,3.4004" id="Fill-21"></path>
            <path d="M18.4009,1.8147 C18.4009,2.5407 17.8119,3.1287 17.0869,3.1287 C16.3599,3.1287 15.7719,2.5407 15.7719,1.8147 C15.7719,1.0887 16.3599,0.4997 17.0869,0.4997 C17.8119,0.4997 18.4009,1.0887 18.4009,1.8147" id="Fill-23"></path>
        </g>
    </g>
</svg>